<svg xmlns="http://www.w3.org/2000/svg" version="1.1" xmlns:xlink="http://www.w3.org/1999/xlink" xmlns:svgjs="http://svgjs.dev/svgjs" width="1500" height="1500" viewBox="0 0 1500 1500"><rect width="1500" height="1500" fill="#000000"></rect><g transform="matrix(0.6666666666666666,0,0,0.6666666666666666,249.39393939393938,581.5533432101348)"><svg viewBox="0 0 396 134" data-background-color="#320d3e" preserveAspectRatio="xMidYMid meet" height="507" width="1500" xmlns="http://www.w3.org/2000/svg" xmlns:xlink="http://www.w3.org/1999/xlink"><g id="tight-bounds" transform="matrix(1,0,0,1,0.2400000000000091,-0.21937275194693484)"><svg viewBox="0 0 395.52 134.43874550389387" height="134.43874550389387" width="395.52"><g><svg viewBox="0 0 395.52 134.43874550389387" height="134.43874550389387" width="395.52"><g><svg viewBox="0 0 395.52 134.43874550389387" height="134.43874550389387" width="395.52"><g id="textblocktransform"><svg viewBox="0 0 395.52 134.43874550389387" height="134.43874550389387" width="395.52" id="textblock"><g><svg viewBox="0 0 395.52 134.43874550389387" height="134.43874550389387" width="395.52"><g transform="matrix(1,0,0,1,0,0)"><svg width="395.52" viewBox="-4.95 -36 143.03 49.28333333333" height="134.43874550389387" data-palette-color="#eeeeee"><path d="M8.8 8.1L8.8 8.1Q8.1 7.95 8.1 6.65L8.1 6.65Q8.1 6.6 8.38 6.43 8.65 6.25 8.65 6.2L8.65 6.2 8.65 6.05Q8.65 5.8 8.6 5.25 8.55 4.7 8.55 4.4L8.55 4.4Q8.55 3.7 8.9 2.8L8.9 2.8Q9.05 2.4 9.2 2 9.35 1.6 9.45 1.2L9.45 1.2 9.35 1.2Q9.25 1.2 8.95 1.3 8.65 1.4 8.55 1.4L8.55 1.4Q8.5 1.4 8.47 1.35 8.45 1.3 8.4 1.3L8.4 1.3Q8.35 1.25 8.05 1.4L8.05 1.4 4.8 2.25Q4.4 2.3 3.88 2.43 3.35 2.55 2.65 2.75L2.65 2.75Q2.65 2.6 2.6 2.55L2.6 2.55Q2.6 2.65 2.5 2.65L2.5 2.65Q2.45 2.65 2.45 2.6L2.45 2.6 2.4 2.6Q2.05 2.6 1.8 2.85L1.8 2.85 1.7 2.75Q1.65 2.75 1.55 2.8 1.45 2.85 1.4 2.85L1.4 2.85Q1.35 2.85 1.25 2.75L1.25 2.75Q1.3 2.8 0.8 2.8L0.8 2.8Q0.3 2.65 0.1 2.43-0.1 2.2-0.3 1.9L-0.3 1.9-0.2 1.75Q-0.4 1.6-0.4 1.35L-0.4 1.35Q-0.4 1.25-0.43 1.2-0.45 1.15-0.45 1.1L-0.45 1.1Q-0.45 0.65 0.1 0.65L0.1 0.65Q0.4 0.65 0.7 0.8L0.7 0.8 1.15 1.4Q1.2 1.4 1.33 1.48 1.45 1.55 1.55 1.55L1.55 1.55Q1.6 1.55 1.7 1.48 1.8 1.4 1.9 1.4L1.9 1.4Q2.05 1.4 2.1 1.55L2.1 1.55Q2.25 1.45 2.25 1.35L2.25 1.35Q2.4 1.4 2.55 1.4 2.7 1.4 2.85 1.4L2.85 1.4Q3.1 1.4 3.58 1.25 4.05 1.1 4.05 1.1L4.05 1.1Q4.1 1.1 4.1 1.2L4.1 1.2 5 0.95Q6.25 0.95 7 0.6L7 0.6Q8.05 0.45 8.25 0.3L8.25 0.3Q8.4 0.15 8.7 0.1L8.7 0.1Q8.95 0.15 9.1 0.15 9.25 0.15 9.3 0.15L9.3 0.15Q9.85 0.15 10.3-0.3L10.3-0.3Q10.35-0.7 10.6-0.95L10.6-0.95Q10.65-1.2 10.78-1.55 10.9-1.9 11.1-2.3L11.1-2.3Q11.2-2.9 12.5-5.3L12.5-5.3Q12.6-5.4 12.68-5.53 12.75-5.65 12.85-5.85L12.85-5.85Q12.9-5.9 12.9-6.25L12.9-6.25Q13.6-7 13.8-8.2L13.8-8.2Q13.9-8.35 14.08-8.7 14.25-9.05 14.6-9.45L14.6-9.45Q14.6-9.7 14.65-9.85L14.65-9.85 14.9-10.2Q15.55-11.35 15.98-12.2 16.4-13.05 16.6-13.6L16.6-13.6Q16.95-14.8 17.9-15.95L17.9-15.95Q18.85-17.1 18.9-17.45L18.9-17.45Q19.1-17.9 19.65-18.4L19.65-18.4Q19.65-18.55 19.55-18.65L19.55-18.65Q19.6-18.65 20.05-18.95L20.05-18.95 20.05-19Q20.05-19.1 20-19.25 19.95-19.4 19.95-19.45L19.95-19.45Q19.95-19.55 20.13-19.65 20.3-19.75 20.35-19.8L20.35-19.8Q20.8-20.8 20.75-20.95L20.75-20.95 20.9-20.95Q21-20.9 21.1-20.9L21.1-20.9Q21.3-21 21.5-21.8L21.5-21.8Q21.6-21.85 21.95-22.2L21.95-22.2Q21.95-22.2 22-22.53 22.05-22.85 22.1-22.85L22.1-22.85Q22.45-22.85 22.35-22.75L22.35-22.75Q22.75-23.2 22.65-23.45L22.65-23.45 22.75-23.45Q22.65-23.45 23.1-23.75L23.1-23.75 23.1-23.45Q23.7-23.75 24-24.25L24-24.25Q24-24.35 24.03-24.48 24.05-24.6 24.1-24.8L24.1-24.8Q23.7-25.2 23.2-25.2L23.2-25.2Q23.15-25.2 23.05-25.13 22.95-25.05 22.85-25.05L22.85-25.05Q22.85-25.1 22.7-25.1L22.7-25.1 22.6-25.1Q22.6-25.1 22.4-25.2L22.4-25.2Q22.2-25.25 21.85-25.3 21.5-25.35 21-25.45L21-25.45Q21-25.45 21.05-25.55 21.1-25.65 21.1-25.8L21.1-25.8Q20.95-25.85 20.8-25.93 20.65-26 20.5-26.05L20.5-26.05 20.5-25.3 20.1-25.3Q19.75-25.3 19.1-25.6 18.45-25.9 18.45-25.9L18.45-25.9Q18.2-25.9 17.65-25.95 17.1-26 16.8-26L16.8-26Q16.75-26 16.63-25.93 16.5-25.85 16.45-25.85L16.45-25.85 15.25-25.85Q15.15-25.85 15.15-26 15.15-26.15 15-26.15L15-26.15Q14.95-26.15 14.85-26.03 14.75-25.9 14.65-25.9L14.65-25.9Q14.45-25.9 14.3-26.05L14.3-26.05Q14.2-26.05 14.1-26 14-25.95 13.95-25.95L13.95-25.95Q13.85-25.95 13.7-26 13.55-26.05 13.45-26.05L13.45-26.05Q13.05-26.05 13-26L13-26Q12.95-26 12.9-25.98 12.85-25.95 12.85-25.95L12.85-25.95 12.85-25.95Q12.85-25.95 12.85-25.95L12.85-25.95Q12.7-25.95 12.38-26.1 12.05-26.25 11.9-26.25L11.9-26.25Q11.85-26.25 11.78-26.13 11.7-26 11.65-26L11.65-26Q11.55-26 11.43-26.08 11.3-26.15 11.25-26.15L11.25-26.15Q11.15-26.15 10.95-26.08 10.75-26 10.7-26L10.7-26 10.4-26Q10.3-26.05 10.15-26.05L10.15-26.05Q10.1-26.05 10.05-26 10-25.95 9.95-25.95L9.95-25.95Q9.85-25.95 9.68-26 9.5-26.05 9.4-26.05L9.4-26.05Q9.35-26.05 9.2-25.95 9.05-25.85 8.95-25.85L8.95-25.85 8.8-25.85Q8.75-25.9 8.65-25.9L8.65-25.9Q8.6-25.9 8.55-25.85L8.55-25.85 8.4-25.85Q8.35-25.85 8.33-25.9 8.3-25.95 8.25-25.95L8.25-25.95Q5.15-25.95 1.95-25L1.95-25Q1.65-24.95 1-24.15L1-24.15 1-24.1Q1-23.9 1.3-23.45L1.3-23.45Q1.4-23.2 1.7-22.8L1.7-22.8Q2.15-22.55 3.1-21.75L3.1-21.75 3.25-21.7Q3.7-21.5 4.4-20.9L4.4-20.9 4.5-21Q5.55-20.6 5.2-20.6L5.2-20.6 5.6-20.7Q6-20.6 6-20.55L6-20.55Q6-20.3 5.35-20.3L5.35-20.3Q5.25-20.3 5.2-20.35L5.2-20.35Q5.05-20.35 4.95-20.3L4.95-20.3 4.7-20.5 4.6-20.4Q4.5-20.5 4.45-20.5L4.45-20.5Q4.4-20.5 4.4-20.45 4.4-20.4 4.35-20.4L4.35-20.4Q4.25-20.4 4.13-20.55 4-20.7 3.95-20.7L3.95-20.7 3.8-20.7Q3.75-20.65 3.7-20.65L3.7-20.65Q3.55-20.65 3.4-20.85 3.25-21.05 3.1-21.05L3.1-21.05 3-21.05Q2.95-21 2.85-21L2.85-21Q2.65-21 2.4-21.23 2.15-21.45 2.05-21.45L2.05-21.45Q2-21.4 1.98-21.4 1.95-21.4 1.95-21.4L1.95-21.4 1.9-21.6Q1.65-21.85 1.43-22.03 1.2-22.2 1-22.3L1-22.3Q0.95-22.45 0.9-22.7 0.85-22.95 0.8-23.3L0.8-23.3Q0.8-23.35 0.68-23.43 0.55-23.5 0.5-23.7L0.5-23.7 0.6-23.85Q0.5-23.85 0.5-24L0.5-24Q0.5-25.25 1.25-25.25L1.25-25.25Q1.35-25.25 1.48-25.4 1.6-25.55 1.65-25.55L1.65-25.55 1.7-25.55Q1.75-25.55 1.75-25.55L1.75-25.55Q1.85-25.6 2.25-25.78 2.65-25.95 2.85-25.95L2.85-25.95Q2.9-25.95 2.98-25.9 3.05-25.85 3.1-25.85L3.1-25.85Q3.3-25.85 3.8-26.05 4.3-26.25 4.5-26.25L4.5-26.25 4.55-26.2 4.65-26.2Q5.1-26.2 5.3-26.25L5.3-26.25 5.4-26.4Q5.7-26.55 5.85-26.55L5.85-26.55Q5.9-26.55 5.93-26.5 5.95-26.45 6-26.45L6-26.45Q6.05-26.45 6.13-26.5 6.2-26.55 6.25-26.55L6.25-26.55Q6.3-26.55 6.35-26.5 6.4-26.45 6.5-26.45L6.5-26.45Q6.55-26.45 6.6-26.5 6.65-26.55 6.7-26.55L6.7-26.55Q6.75-26.55 6.85-26.5 6.95-26.45 7-26.45L7-26.45Q7.1-26.45 7.3-26.63 7.5-26.8 7.55-26.85L7.55-26.85 7.75-26.8Q8.15-26.8 8.1-26.85L8.1-26.85 8.25-26.55 8.65-26.55Q8.75-26.5 8.75-26.73 8.75-26.95 9.25-26.95L9.25-26.95Q9.35-26.95 9.45-26.9 9.55-26.85 9.65-26.85L9.65-26.85Q9.7-26.85 9.85-26.95 10-27.05 10.05-27.05L10.05-27.05Q10.1-27.05 10.1-26.95L10.1-26.95 10.15-26.95Q10.25-26.95 10.43-27.03 10.6-27.1 10.7-27.1L10.7-27.1 10.85-27.1Q10.9-27.05 10.95-27.05L10.95-27.05Q10.95-27.05 11.2-27.15 11.45-27.25 11.95-27.25L11.95-27.25 12.35-26.85Q12.5-26.7 12.65-26.7L12.65-26.7Q13.15-26.7 13.4-27.15L13.4-27.15Q13.45-27.2 13.5-27.2L13.5-27.2Q13.65-27.2 13.75-27.13 13.85-27.05 13.9-27.05L13.9-27.05Q13.95-27.05 14.05-27.1 14.15-27.15 14.25-27.15L14.25-27.15 14.35-27.15Q14.4-27.1 14.43-27.1 14.45-27.1 14.45-27.1L14.45-27.1Q14.5-27.1 14.65-27.25L14.65-27.25 14.9-27.25Q15-27.25 15.23-27.15 15.45-27.05 15.55-27.05L15.55-27.05Q15.7-27.05 15.8-27.1L15.8-27.1 16.05-27.1Q16.05-27.1 16.13-27.18 16.2-27.25 16.25-27.25L16.25-27.25Q16.35-27.25 16.45-27.15 16.55-27.05 16.6-27.05L16.6-27.05Q16.65-27.05 16.78-27.1 16.9-27.15 17-27.15L17-27.15Q17.05-27.15 17.2-27.1 17.35-27.05 17.45-27.05L17.45-27.05Q17.5-27.05 17.73-27.2 17.95-27.35 18.05-27.35L18.05-27.35Q18.1-27.35 18.18-27.3 18.25-27.25 18.3-27.25L18.3-27.25Q18.35-27.25 18.45-27.3 18.55-27.35 18.6-27.35L18.6-27.35 19.2-26.95 19.5-26.95Q19.6-27.15 19.6-27.25L19.6-27.25 20.1-27.25 20.2-27.15Q20.25-27.15 20.25-27.25L20.25-27.25 20.3-27.25Q20.35-27.25 20.45-27.2 20.55-27.15 20.6-27.15L20.6-27.15Q20.65-27.15 20.65-27.2 20.65-27.25 20.7-27.25L20.7-27.25Q20.75-27.25 20.8-27.15L20.8-27.15Q20.9-27.2 20.9-27.2L20.9-27.2Q20.9-27.2 20.9-27.25L20.9-27.25Q20.95-27.2 20.9-27.2L20.9-27.2Q21-27.05 21.05-27.05L21.05-27.05Q21.15-27.05 21.2-27.1L21.2-27.1 21.35-27.1Q21.65-27.1 21.83-26.98 22-26.85 22.05-26.85L22.05-26.85Q22.1-26.85 22.15-26.9 22.2-26.95 22.25-26.95L22.25-26.95Q23.75-26.95 23.9-26.75L23.9-26.75Q24.15-27 24.35-27L24.35-27Q24.4-27 24.65-26.75 24.9-26.5 25-26.5L25-26.5Q25.1-26.5 25.35-26.75L25.35-26.75Q25.6-26.85 25.55-27L25.55-27 25.9-27 26-27.1Q25.75-27.45 25.75-27.55L25.75-27.55 25.85-27.65 25.85-27.8Q25.85-28.05 25.9-28.1L25.9-28.1Q26.05-28.45 28.05-30L28.05-30 28.3-30.05 29-30.45Q29.2-30.65 29.55-30.85L29.55-30.85Q29.65-30.85 29.75-30.88 29.85-30.9 30-30.95L30-30.95 30.25-31.15Q31.1-31.5 31.55-31.5L31.55-31.5Q31.7-31.5 32.1-31.4L32.1-31.4 32.6-30.5Q32.9-30.45 33.15-30L33.15-30Q33.15-29.85 33-29.83 32.85-29.8 32.85-29.55L32.85-29.55Q32.4-29.45 31.7-28.95L31.7-28.95Q31.65-28.9 31.55-28.9L31.55-28.9 30.95-28.25Q30.55-27.9 29.93-27.4 29.3-26.9 28.45-26.2L28.45-26.2Q28.75-25.85 29.15-25.85L29.15-25.85Q29.2-25.85 29.25-25.9 29.3-25.95 29.35-25.95L29.35-25.95Q29.4-25.95 29.45-25.9 29.5-25.85 29.55-25.85L29.55-25.85Q29.6-25.85 29.65-25.9 29.7-25.95 29.75-25.95L29.75-25.95Q29.95-25.95 30.1-25.75L30.1-25.75Q30.75-25.75 31.8-25.35L31.8-25.35Q32.65-25 32.75-24.85L32.75-24.85 32.75-24.85 32.8-24.85Q32.6-24.85 33.5-24.45L33.5-24.45Q33.65-24.45 33.83-24.35 34-24.25 34.45-23.9L34.45-23.9Q34.45-23.8 34.55-23.6 34.65-23.4 34.65-23.3L34.65-23.3Q34.65-23.15 34.45-22.6L34.45-22.6 34.3-22.3Q34.15-22.2 33.95-21.98 33.75-21.75 33.5-21.5L33.5-21.5Q33-21.3 32.6-20.75 32.2-20.2 31.5-20L31.5-20 31.5-19.9Q31.55-19.85 32.9-19.55L32.9-19.55 35.3-19.25Q35.8-19.1 35.8-19L35.8-19Q35.8-18.95 35.83-19.05 35.85-19.15 35.9-19.15L35.9-19.15Q36-19.15 36.1-19.1L36.1-19.1Q36.2-19.05 36.25-19.1L36.25-19.1Q36.35-19 36.5-18.95L36.5-18.95Q38.55-17.9 38.9-17.9L38.9-17.9 39-17.9Q39.05-17.95 39.08-17.95 39.1-17.95 39.1-17.95L39.1-17.95Q39.2-17.95 39.25-17.85 39.3-17.75 39.35-17.75L39.35-17.75Q39.5-17.7 39.7-17.6 39.9-17.5 40.15-17.4L40.15-17.4 40.25-17.25Q40.45-17.15 40.73-16.98 41-16.8 41.35-16.55L41.35-16.55Q41.5-16.4 41.7-16L41.7-16Q41.9-16 42.85-14.75L42.85-14.75Q43.5-13.5 43.5-13L43.5-13Q43.5-12.85 43.63-12.73 43.75-12.6 43.75-12.55L43.75-12.55Q43.75-12.45 43.63-12.38 43.5-12.3 43.5-12.25L43.5-12.25Q43.5-12.15 43.58-11.98 43.65-11.8 43.65-11.7L43.65-11.7Q43.65-11.65 43.58-11.5 43.5-11.35 43.5-11.25L43.5-11.25 43.5-11.05Q43.55-11 43.55-10.85L43.55-10.85Q43.55-9.9 43.05-9.35L43.05-9.35 43.3-9.15Q43.65-9.35 43.83-9.43 44-9.5 44-9.5L44-9.5Q44.35-9.5 44.2-9.35L44.2-9.35Q44.6-9.65 45.25-9.7L45.25-9.7Q45.4-9.85 45.95-9.9L45.95-9.9Q46-9.9 46.53-10.28 47.05-10.65 47.15-10.65L47.15-10.65Q47.25-10.65 47.23-10.6 47.2-10.55 47.3-10.55L47.3-10.55Q47.35-10.55 47.43-10.63 47.5-10.7 47.55-10.7L47.55-10.7Q48.05-10.8 48.3-11.05 48.55-11.3 49.35-11.3L49.35-11.3Q49.55-11.3 49.55-11.2L49.55-11.2Q49.55-11.15 49.35-11 49.15-10.85 49.15-10.8L49.15-10.8 49.05-10.8Q48.9-10.8 48.63-10.7 48.35-10.6 48.2-10.6L48.2-10.6Q48.05-10.6 47.38-10.25 46.7-9.9 46.55-9.75L46.55-9.75 46.4-9.85Q44.6-9.3 43.8-8.75L43.8-8.75 43.7-8.85Q42.6-8.5 42.6-8.05L42.6-8.05Q42.55-8.1 42.5-8.1L42.5-8.1Q42.25-8.1 42.25-7.6L42.25-7.6Q42.15-7.4 41.85-7.08 41.55-6.75 40.7-6.05L40.7-6.05Q40.7-5.9 40.65-5.8L40.65-5.8Q40.45-5.55 40.18-5.25 39.9-4.95 39.5-4.65L39.5-4.65Q39.35-4.4 39-4.35L39-4.35Q38.95-4.35 38.95-4.2L38.95-4.2Q37.15-3.2 36-1.9L36-1.9Q35.95-1.95 35.85-1.95L35.85-1.95Q35.45-1.95 35.2-1.4L35.2-1.4Q35-1.4 33.7-0.6L33.7-0.6Q33.55-0.6 33.2-0.5 32.85-0.4 32.15 0L32.15 0 32.1 0Q31.8 0 31.25 0.35 30.7 0.7 30.4 0.7L30.4 0.7Q30.35 0.7 30.35 0.65L30.35 0.65 30.3 0.65Q30.2 0.65 29.55 0.9 28.9 1.15 28.8 1.25L28.8 1.25Q28.6 1.15 28.55 1.15L28.55 1.15Q28.5 1.15 28.28 1.28 28.05 1.4 27.75 1.4L27.75 1.4Q27.65 1.4 27.43 1.55 27.2 1.7 27.1 1.75L27.1 1.75Q26.9 1.8 26.68 1.8 26.45 1.8 26.1 1.8L26.1 1.8 26 1.8Q26 1.75 25.95 1.75L25.95 1.75Q25.85 1.75 25.7 1.9 25.55 2.05 25.5 2.05L25.5 2.05Q25.45 2.05 25.45 2L25.45 2 25.35 2Q25.25 2 25.08 2 24.9 2 24.7 2.05L24.7 2.05Q24.6 2.2 23.55 2.3L23.55 2.3 23.35 2.45Q23.05 2.55 23 2.65L23 2.65Q22.9 2.65 22.73 2.65 22.55 2.65 22.3 2.7L22.3 2.7Q22.15 2.7 21.25 3.05L21.25 3.05Q20.4 3.3 20.2 3.3L20.2 3.3 19.4 3.3Q18.85 3.3 18.73 3.38 18.6 3.45 18.1 3.5L18.1 3.5Q18.05 3.55 17.95 3.55L17.95 3.55Q17.9 3.55 17.82 3.5 17.75 3.45 17.7 3.45L17.7 3.45Q17.55 3.45 17 3.6 16.45 3.75 15.95 3.7L15.95 3.7Q15.85 3.8 15.75 3.8L15.75 3.8Q15.7 3.8 15.55 3.73 15.4 3.65 15.3 3.65L15.3 3.65Q15.15 3.65 14.78 3.73 14.4 3.8 14.2 3.8L14.2 3.8Q14.15 3.8 14.1 3.75 14.05 3.7 14 3.7L14 3.7Q13.95 3.7 13.93 3.75 13.9 3.8 13.85 3.8L13.85 3.8Q13.8 3.7 13.8 3.7L13.8 3.7 13.5 3.7Q13.25 3.7 12.88 3.75 12.5 3.8 12.3 3.8L12.3 3.8 12.3 3.85Q12.3 3.9 12.25 3.9L12.25 3.9Q12 3.9 11.55 3.78 11.1 3.65 10.85 3.65L10.85 3.65 10.75 3.55Q10.85 3.45 10.85 3.25L10.85 3.25Q11.05 3.35 11.2 3.5L11.2 3.5 11.35 3.3Q11.65 3.25 11.8 3.23 11.95 3.2 11.95 3.2L11.95 3.2Q12 3.2 12.13 3.28 12.25 3.35 12.35 3.35L12.35 3.35Q12.45 3.35 12.4 3.3L12.4 3.3Q12.65 3.3 13.13 3.18 13.6 3.05 13.8 3.05L13.8 3.05Q13.95 3.05 14.23 3.1 14.5 3.15 14.6 3.15L14.6 3.15Q14.8 3.15 14.85 2.95L14.85 2.95Q14.95 3.05 15.05 3.05L15.05 3.05Q15.15 3.05 15.15 2.95L15.15 2.95Q15.25 3.05 15.6 3.05L15.6 3.05Q15.9 3.05 16.53 2.9 17.15 2.75 17.45 2.75L17.45 2.75Q17.5 2.75 17.6 2.8 17.7 2.85 17.75 2.85L17.75 2.85 17.9 2.65Q18 2.75 18.15 2.75L18.15 2.75Q18.25 2.75 18.5 2.65 18.75 2.55 18.9 2.55L18.9 2.55Q18.95 2.55 18.95 2.6L18.95 2.6 19 2.6Q19.9 2.6 20.1 2.3L20.1 2.3 21.65 1.8Q22.7 1.45 23.2 1.45L23.2 1.45 23.25 1.45Q23.25 1.5 23.35 1.5L23.35 1.5Q23.4 1.5 23.43 1.4 23.45 1.3 23.55 1.3L23.55 1.3Q23.6 1.3 23.6 1.38 23.6 1.45 23.65 1.45L23.65 1.45Q23.75 1.45 24.28 1.23 24.8 1 24.9 1L24.9 1 24.95 1Q24.95 1.05 25 1.05L25 1.05Q25.1 1.05 25.68 0.8 26.25 0.55 26.35 0.55L26.35 0.55Q26.55 0.5 26.8 0.4 27.05 0.3 27.4 0.2L27.4 0.2Q27.5 0.2 27.68 0.18 27.85 0.15 28.05 0.1L28.05 0.1Q28.2 0 28.5-0.15 28.8-0.3 29.4-0.45L29.4-0.45 32.65-1.85Q32.8-1.85 33-1.85 33.2-1.85 33.45-1.9L33.45-1.9 33.9-2.35Q34.25-2.35 34.25-2.6L34.25-2.6Q34.75-2.65 35.5-3.5L35.5-3.5 36.5-4Q36.8-4.3 37.05-4.75L37.05-4.75Q37.2-5.1 38.3-5.55L38.3-5.55 38.2-5.6Q38.3-5.65 38.55-6.65L38.55-6.65Q38.6-6.75 38.7-6.83 38.8-6.9 38.9-7L38.9-7 39.45-7.4Q39.45-7.4 39.4-7.45L39.4-7.45Q39.35-7.4 39.08-7.33 38.8-7.25 38.35-7.1L38.35-7.1 34.95-6Q33.5-5.6 31.48-5.05 29.45-4.5 26.8-3.85L26.8-3.85Q26.7-3.6 26.6-3.6L26.6-3.6Q26.55-3.6 26.5-3.65L26.5-3.65 26.45-3.65Q26.35-3.65 26.25-3.58 26.15-3.5 26.05-3.5L26.05-3.5Q26-3.5 26-3.55L26-3.55 25.95-3.55Q26.1-3.55 25.68-3.35 25.25-3.15 24.8-3.15L24.8-3.15Q24.75-3.15 24.75-3.2L24.75-3.2 24.7-3.2Q23.55-2.7 23.1-2.7L23.1-2.7Q23.05-2.7 23-2.75L23-2.75Q23-2.7 22.6-2.45L22.6-2.45Q22.1-2.35 21.53-2.25 20.95-2.15 20.3-2.05L20.3-2.05 20.25-2Q20.05-1.95 19.95-1.88 19.85-1.8 19.8-1.8L19.8-1.8Q19.75-1.8 19.75-1.85L19.75-1.85 19.65-1.85 18.5-1.45Q17.45-1.1 17.15-1.1L17.15-1.1 17.1-1.1Q17.05-1.15 17-1.15L17-1.15Q16.85-1.15 16.53-1 16.2-0.85 16-0.85L16-0.85Q15.65-0.85 15.5-0.5L15.5-0.5Q15.3-0.65 15.2-0.65L15.2-0.65Q15.1-0.65 14.9-0.5 14.7-0.35 14.6-0.35L14.6-0.35 13.55-0.2Q13.4 0.1 13.25 0.1L13.25 0.1Q13.2 0.1 13.18 0.05 13.15 0 13.1 0L13.1 0Q13.15 0 12.1 0.4L12.1 0.4Q11.75 0.4 11.25 0.9L11.25 0.9 10.85 0.9 10.85 1Q10.85 1.3 10.45 1.55L10.45 1.55Q9.25 3.8 9.25 4.95L9.25 4.95Q9.2 5 9.05 6.1L9.05 6.1 8.9 6.55Q8.85 6.9 8.9 7.9L8.9 7.9Q8.9 7.9 8.8 8.1ZM32.75-24.85L32.7-24.8Q32.75-24.8 32.75-24.85L32.75-24.85ZM12.05-0.95L12.05-0.95 12.1-0.95Q12.3-0.95 12.3-1.05L12.3-1.05Q12.7-1.1 12.65-1.15L12.65-1.15 12.6-1.15 12.6-1.15Q12.6-1.15 12.6-1.15 12.6-1.15 12.6-1.15L12.6-1.15Q12.65-1.15 12.65-1.15L12.65-1.15Q12.75-1.1 12.8-1.05L12.8-1.05 12.9-1.25Q13.1-1.15 13.3-0.95L13.3-0.95Q13.35-1.05 13.75-1.45L13.75-1.45 14.1-1.45Q14.1-1.1 14.3-0.95L14.3-0.95Q14.3-0.95 14.38-0.98 14.45-1 14.65-1.05L14.65-1.05Q14.55-1.35 14.55-1.35L14.55-1.35Q14.6-1.3 14.65-1.3L14.65-1.3Q14.75-1.3 14.85-1.4 14.95-1.5 15-1.5L15-1.5Q15.05-1.5 15.1-1.45L15.1-1.45 15.15-1.45Q15.25-1.45 15.3-1.55 15.35-1.65 15.45-1.65L15.45-1.65Q15.5-1.65 15.55-1.63 15.6-1.6 15.7-1.55L15.7-1.55Q15.75-1.65 16.35-1.85L16.35-1.85Q18.6-2.55 19.6-2.55L19.6-2.55Q19.85-2.55 19.9-2.7L19.9-2.7Q20.4-2.35 20.3-2.35L20.3-2.35 20.4-2.35Q20.75-2.35 20.9-2.6 21.05-2.85 21.25-2.85L21.25-2.85 21.35-2.85Q21.35-2.8 21.4-2.8L21.4-2.8Q21.65-2.8 22.35-3.15L22.35-3.15 22.35-3.1Q24.3-3.7 24.4-3.7L24.4-3.7 24.45-3.7Q24.5-3.65 24.55-3.65L24.55-3.65Q24.75-3.65 25.1-3.95L25.1-3.95Q25.55-3.95 26.45-4.2L26.45-4.2 26.6-4.2Q28.15-4.6 30.3-5.25 32.45-5.9 35.2-6.75L35.2-6.75 35.25-6.7 35.3-6.7Q35.2-6.7 35.55-6.9L35.55-6.9 35.6-6.9Q35.75-6.9 35.95-7.1L35.95-7.1Q36-7.05 36.2-7.05L36.2-7.05Q36.3-7.05 36.83-7.28 37.35-7.5 37.45-7.5L37.45-7.5Q37.5-7.5 37.55-7.45L37.55-7.45 37.6-7.45Q37.65-7.45 37.8-7.53 37.95-7.6 38-7.6L38-7.6 38.1-7.6Q38.1-7.55 38.15-7.55L38.15-7.55Q38.45-7.55 38.7-7.75 38.95-7.95 39.1-7.95L39.1-7.95Q39.35-7.95 39.4-7.9L39.4-7.9Q39.45-8.05 39.9-8.4L39.9-8.4 39.75-8.6Q40.1-8.85 40.15-9.65L40.15-9.65Q40.25-9.75 40.45-9.75L40.45-9.75 40.65-9.75Q40.75-9.7 40.85-9.7L40.85-9.7Q41-9.7 41.25-9.95L41.25-9.95Q41.15-10.25 41.15-10.4L41.15-10.4Q41.15-10.5 41.23-10.63 41.3-10.75 41.3-10.8L41.3-10.8Q41.3-10.95 41.15-11.3 41-11.65 41-11.8L41-11.8Q41-11.95 41.13-12.28 41.25-12.6 41.25-12.75L41.25-12.75Q41.25-12.9 41.1-13.05L41.1-13.05Q40.95-13.15 40.8-13.05L40.8-13.05 40.8-13.1Q40.8-13.15 40.7-13.2 40.6-13.25 40.6-13.3L40.6-13.3 40.75-14.1Q40.8-14.3 40.5-14.3L40.5-14.3Q40-14.3 39.9-14.25L39.9-14.25Q39.9-14.5 39.6-14.73 39.3-14.95 39.3-15L39.3-15Q39.25-15.15 39.13-15.28 39-15.4 38.9-15.5L38.9-15.5 38.9-15.7Q38.9-16.3 37.7-16.8L37.7-16.8Q37.55-16.95 36.95-17.3L36.95-17.3Q36.8-17.35 36.58-17.45 36.35-17.55 36.05-17.65L36.05-17.65Q36-17.65 35.7-17.95 35.4-18.25 35.3-18.25L35.3-18.25Q34.35-18.25 33.2-18.95L33.2-18.95 32.7-19 32.65-19Q32.65-18.95 32.6-18.95L32.6-18.95Q32.55-18.95 32.5-19.05 32.45-19.15 32.35-19.15L32.35-19.15Q32.25-19.15 32.15-19.1L32.15-19.1 32-19.1Q31.9-19.1 31.85-19.2 31.8-19.3 31.7-19.3L31.7-19.3 31.6-19.3Q31.6-19.25 31.5-19.25L31.5-19.25Q31.4-19.25 31.1-19.4 30.8-19.55 30.7-19.55L30.7-19.55Q30.65-19.55 30.15-19.28 29.65-19 29.5-19L29.5-19Q29.35-19 28.3-18.55L28.3-18.55Q28.1-18.5 27.83-18.45 27.55-18.4 27.2-18.35L27.2-18.35Q26.9-18.15 26.08-17.95 25.25-17.75 24.4-17.75L24.4-17.75Q24.4-17.8 24.3-17.93 24.2-18.05 24.2-18.1L24.2-18.1Q24.2-18.5 24.6-18.5L24.6-18.5Q24.75-18.5 25-18.45 25.25-18.4 25.35-18.4L25.35-18.4Q25.4-18.4 25.48-18.45 25.55-18.5 25.6-18.5L25.6-18.5 25.7-18.5Q25.7-18.45 25.75-18.45L25.75-18.45Q25.85-18.45 25.98-18.55 26.1-18.65 26.15-18.65L26.15-18.65Q26.2-18.65 26.3-18.57 26.4-18.5 26.45-18.5L26.45-18.5Q26.8-18.5 26.8-18.95L26.8-18.95Q26.9-18.85 27.15-18.85L27.15-18.85Q27.35-18.85 27.4-18.9 27.45-18.95 27.5-19L27.5-19 27.6-19Q27.65-18.95 27.7-18.95L27.7-18.95Q27.95-18.95 28.5-19.35L28.5-19.35Q28.55-19.3 28.7-19.25L28.7-19.25Q28.75-19.35 29.25-19.5L29.25-19.5Q29.25-19.6 28.83-19.7 28.4-19.8 27.85-19.8L27.85-19.8 26.35-19.8Q26.25-19.8 26.13-19.73 26-19.65 25.95-19.65L25.95-19.65Q25.9-19.65 25.83-19.7 25.75-19.75 25.7-19.75L25.7-19.75Q25.6-19.75 25.5-19.65L25.5-19.65 24.7-19.65Q24.55-19.75 24.6-19.95L24.6-19.95Q25.45-20.25 26-20.25L26-20.25Q26.05-20.25 26.15-20.15L26.15-20.15 26.25-20.25 26.6-20.25Q26.75-20.25 26.88-20.2 27-20.15 27.05-20.15L27.05-20.15Q27.15-20.15 27.33-20.2 27.5-20.25 27.55-20.25L27.55-20.25Q27.6-20.25 27.7-20.2 27.8-20.15 27.85-20.15L27.85-20.15Q27.9-20.15 27.98-20.2 28.05-20.25 28.1-20.25L28.1-20.25Q28.1-20.25 28.68-20.2 29.25-20.15 29.3-20.05L29.3-20.05 29.4-20.2Q29.6-20 30.7-20L30.7-20Q30.9-20 31.55-20.65L31.55-20.65Q32.2-21.3 32.2-21.6L32.2-21.6Q32.2-21.85 32-21.9L32-21.9 32-22.15 32.25-22.15 32.25-22.2Q32.25-22.5 31.95-22.65L31.95-22.65Q31.9-22.6 31.85-22.6L31.85-22.6Q31.65-22.6 31.35-22.7L31.35-22.7Q31.3-23 30.93-23.05 30.55-23.1 30.25-23.15L30.25-23.15 30.1-23.55Q30.15-23.65 30.15-23.8L30.15-23.8 30.15-23.85 29.9-24.05Q29.75-23.95 29.68-23.8 29.6-23.65 29.45-23.65L29.45-23.65Q29.15-23.65 28.75-24.03 28.35-24.4 28.05-24.4L28.05-24.4Q28-24.4 27.85-24.28 27.7-24.15 27.55-24.15L27.55-24.15Q27.5-24.15 27.4-24.15 27.3-24.15 27.2-24.2L27.2-24.2 26.85-24.2Q26.8-24.2 25.3-22.6L25.3-22.6Q24.35-21.6 23.7-20.85 23.05-20.1 22.8-19.55L22.8-19.55 20.65-16.55Q20.5-16.5 20.15-15.8L20.15-15.8Q19.95-15.75 19.65-14.95L19.65-14.95Q19.55-14.85 19.45-14.7 19.35-14.55 19.25-14.35L19.25-14.35 19.1-13.75Q18.95-13.75 18.85-13.6L18.85-13.6Q18.55-13.75 18.55-13.95L18.55-13.95Q18.55-14.1 19.05-14.95L19.05-14.95 19-14.95Q18.7-14.95 17.9-13.4L17.9-13.4Q17.05-11.75 16.8-11.5L16.8-11.5 16.8-11.45Q16.75-11.4 16.75-11.2L16.75-11.2Q16.35-11.05 16.35-10.5L16.35-10.5 16.2-10.3Q15.85-9.85 15.55-8.65L15.55-8.65Q15.2-8.45 14.95-7.65L14.95-7.65 14.8-7.7Q14.75-7.6 14.75-7.45 14.75-7.3 14.7-7.05L14.7-7.05Q14.7-6.95 14.6-6.8 14.5-6.65 14.55-6.5L14.55-6.5Q14.3-6.4 14.15-6.2L14.15-6.2Q14.05-5.55 13.7-5.2L13.7-5.2Q13.75-5.15 13.75-5.1L13.75-5.1Q13.75-4.95 13.55-4.78 13.35-4.6 13.3-4.55L13.3-4.55Q13.4-4.35 13.4-4.2L13.4-4.2Q13.4-3.8 13.08-3.48 12.75-3.15 12.75-3.1L12.75-3.1 12.45-2.3Q11.95-1.6 11.95-1.4L11.95-1.4Q11.95-1.35 12-1.2 12.05-1.05 12.05-0.95ZM45.45 0.45L45.45 0.45Q45.4 0.4 45.32 0.3 45.25 0.2 45.2 0.2L45.2 0.2 45.15 0.2Q45.15 0.25 45.1 0.25L45.1 0.25Q45 0.25 44.9-0.2L44.9-0.2Q44.85-0.25 44.55-0.35L44.55-0.35Q44.4-0.9 44.2-0.95L44.2-0.95 44.2-2.3 44.6-2.75Q44.65-2.8 44.55-3.1L44.55-3.1Q44.6-3.2 44.65-3.3 44.7-3.4 44.8-3.5L44.8-3.5Q44.8-3.65 44.75-3.85L44.75-3.85Q44.85-4.15 45.05-4.3L45.05-4.3Q45.05-4.6 45.25-4.85L45.25-4.85Q45.35-4.85 45.8-5.45L45.8-5.45 46.3-6.2Q46.45-6.3 46.9-6.75L46.9-6.75 46.9-6.95Q47.05-7.05 47.2-7.25L47.2-7.25Q47.55-7.3 47.7-7.55L47.7-7.55Q47.7-7.6 47.7-7.7 47.7-7.8 47.75-7.9L47.75-7.9Q47.85-7.95 47.95-7.95 48.05-7.95 48.2-8L48.2-8Q48.3-8.3 48.45-8.4L48.45-8.4Q49.1-8.45 49.4-9.1L49.4-9.1Q49.45-9.1 49.62-9.22 49.8-9.35 49.85-9.35L49.85-9.35Q49.85-9.35 49.85-9.35L49.85-9.35 49.85-9.35Q49.8-9.3 50-9.25L50-9.25Q50.1-9.35 50.1-9.4L50.1-9.4Q50.35-9.55 50.55-9.55L50.55-9.55Q50.8-9.85 50.8-9.85L50.8-9.85Q50.85-9.85 50.87-9.8 50.9-9.75 50.95-9.75L50.95-9.75Q51.05-9.75 51.32-9.88 51.6-10 51.7-10L51.7-10 51.75-10Q51.7-9.95 51.8-9.95L51.8-9.95Q51.85-9.95 51.92-10.03 52-10.1 52.05-10.1L52.05-10.1Q52.15-10.1 52.25-10.03 52.35-9.95 52.4-9.95L52.4-9.95Q52.45-9.95 52.47-10 52.5-10.05 52.6-10.05L52.6-10.05Q52.6-10.05 52.6-10.05L52.6-10.05 52.6-10.05Q52.5-10.05 52.75-9.95L52.75-9.95Q52.8-10.15 53-10.15L53-10.15Q53.1-10.15 53.12-10.08 53.15-10 53.25-10L53.25-10Q53.3-10 53.3-10.05L53.3-10.05 53.4-10.05Q53.5-10.05 53.8-9.65L53.8-9.65Q53.9-9.75 53.9-9.75L53.9-9.75Q54.25-9.5 54.3-9.35L54.3-9.35 54.3-8.85 54.2-8.95Q53.9-8.85 53.6-8.85L53.6-8.85Q53.55-8.85 53.52-8.9 53.5-8.95 53.4-8.95L53.4-8.95Q53.35-8.95 53.27-8.9 53.2-8.85 53.15-8.85L53.15-8.85Q53.05-8.85 52.97-8.9 52.9-8.95 52.85-8.95L52.85-8.95Q52.8-8.95 52.8-8.9 52.8-8.85 52.7-8.85L52.7-8.85 52.65-8.85Q52.7-8.9 52.6-8.9L52.6-8.9Q52.55-8.9 52.02-8.65 51.5-8.4 51.45-8.4L51.45-8.4Q51.4-8.4 51.3-8.55L51.3-8.55 50.3-8.1 49.95-8.2Q49.9-8.2 49.7-8 49.5-7.8 49.4-7.8L49.4-7.8Q49.35-7.8 49.35-7.85L49.35-7.85 49.3-7.85Q49.1-7.85 48.92-7.63 48.75-7.4 48.4-7.3L48.4-7.3Q48.35-7.25 48.4-7.1L48.4-7.1Q48.15-6.55 47.75-6.4L47.75-6.4Q47.7-6.35 47.7-6.2L47.7-6.2 47.35-6.2Q47.3-6.15 47.3-5.85L47.3-5.85Q47.3-5.85 47.22-5.85 47.15-5.85 47.05-5.9L47.05-5.9Q46.9-5.65 47-5.4L47-5.4 46.5-5.4Q46.4-5.2 46.25-4.93 46.1-4.65 45.95-4.25L45.95-4.25Q45.9-4.1 45.77-3.88 45.65-3.65 45.55-3.35L45.55-3.35Q45.25-3 45.05-2.5L45.05-2.5 45.05-2.05Q45.05-2 45-1.85 44.95-1.7 44.95-1.6L44.95-1.6Q45.2-1.35 45.45-1.35L45.45-1.35Q45.6-1.35 45.82-1.43 46.05-1.5 46.25-1.9L46.25-1.9 46.4-1.8Q46.8-1.95 47.3-2.35L47.3-2.35Q47.35-2.4 47.55-2.45 47.75-2.5 47.75-2.7L47.75-2.7Q47.8-2.7 47.85-2.65L47.85-2.65 48.05-3Q48.6-3.1 48.65-3.6L48.65-3.6Q48.75-3.6 48.8-3.55L48.8-3.55 49.15-3.85Q49.15-3.95 49.2-4.05L49.2-4.05Q49.25-4.05 49.3-4.08 49.35-4.1 49.45-4.15L49.45-4.15 49.75-4.7Q49.9-4.85 50.25-4.9L50.25-4.9Q50.4-5 50.52-5.15 50.65-5.3 50.75-5.4L50.75-5.4Q50.7-5.5 50.65-5.6 50.6-5.7 50.5-5.8L50.5-5.8Q50.4-5.95 50.6-6.05L50.6-6.05Q50.5-6 50.5-6.15L50.5-6.15 50.5-6.45Q50.65-6.55 50.87-6.65 51.1-6.75 51.35-6.95L51.35-6.95Q51.55-7.05 51.6-7.05L51.6-7.05Q51.6-7.05 51.6-7.05L51.6-7.05 51.6-7.05Q51.45-7.05 51.7-6.95L51.7-6.95Q51.8-7.2 51.95-7.5 52.1-7.8 52.25-8.2L52.25-8.2 52.65-8.4Q52.65-8.4 52.75-8.1L52.75-8.1Q52.35-7.55 52.35-7.25L52.35-7.25Q52.35-7.1 52.85-6.95L52.85-6.95Q52.85-6.95 52.85-6.93 52.85-6.9 52.8-6.85L52.8-6.85Q53-6.7 53.12-6.55 53.25-6.4 53.3-6.3L53.3-6.3Q52.95-5.8 52.95-5.35L52.95-5.35 53.05-5.25Q53-5.2 53-4.85L53-4.85Q53.05-4.55 53.12-4.23 53.2-3.9 53.3-3.5L53.3-3.5 53.65-3 53.65-2.85Q53.65-2.15 54.15-1.65L54.15-1.65 54.3-1.75 54.3-1.6Q54.6-1.5 54.95-1.15L54.95-1.15 55.5-1.15Q55.65-0.95 55.8-0.95L55.8-0.95Q56.6-0.95 56.6-1.35L56.6-1.35Q56.6-1.35 56.7-1.25L56.7-1.25Q57.25-1.5 58.35-2.9L58.35-2.9Q59.1-3.8 59.2-3.75L59.2-3.75 59.4-3.7 59.4-3.5 59.45-3.45Q59.45-3.45 59.05-2.9L59.05-2.9Q59.05-2.7 58.65-2.4L58.65-2.4Q58.75-2.35 58.65-2.25L58.65-2.25 58.35-2.05 58.45-1.9Q57.95-1.75 57.65-1.5 57.35-1.25 57.4-1.15L57.4-1.15Q57.3-1.15 57.05-0.85L57.05-0.85Q56.85-0.85 56.85-0.65L56.85-0.65Q56.75-0.75 56.75-0.75L56.75-0.75 56.6-0.65Q56.6-0.65 56.52-0.6 56.45-0.55 56.35-0.45L56.35-0.45Q56.3-0.45 56.2-0.45 56.1-0.45 56-0.4L56-0.4 55.9-0.25 55.65-0.25Q55.6-0.3 55.55-0.3L55.55-0.3Q55.1-0.3 54.85-0.05L54.85-0.05 54.85-0.25 54.2-0.25 54.2-0.45Q54.1-0.35 54.05-0.35L54.05-0.35Q53.95-0.35 53.77-0.53 53.6-0.7 53.4-0.65L53.4-0.65Q53.15-1.05 52.82-1.48 52.5-1.9 52.4-1.8L52.4-1.8Q52.4-1.85 52.45-1.9L52.45-1.9Q52.3-2.05 52.25-2.35L52.25-2.35Q51.9-2.75 50.9-4.8L50.9-4.8Q50.7-4.6 50.4-4.25 50.1-3.9 49.7-3.5L49.7-3.5Q49.65-3.4 49.6-3.28 49.55-3.15 49.5-2.95L49.5-2.95 49.15-2.75Q49.15-2.65 49.12-2.53 49.1-2.4 49.05-2.2L49.05-2.2Q49-2.2 48.77-2 48.55-1.8 48.35-1.8L48.35-1.8Q48.3-1.8 48.2-1.9L48.2-1.9Q48.1-1.8 47.95-1.63 47.8-1.45 47.6-1.2L47.6-1.2Q47.65-1.15 47.9-1.15L47.9-1.15 47.9-0.95Q47.9-0.9 47.6-0.6L47.6-0.6 47.7-0.5Q47.55-0.4 47.05 0.1L47.05 0.1Q47 0.1 46.87 0.1 46.75 0.1 46.6 0.15L46.6 0.15Q45.95 0.4 46.2 0.4L46.2 0.4Q46.05 0.4 45.85 0.35L45.85 0.35 45.55 0.35Q45.45 0.35 45.45 0.45ZM60.5 0.45L60.5 0.45Q60.45 0.4 60.37 0.3 60.3 0.2 60.25 0.2L60.25 0.2 60.2 0.2Q60.2 0.25 60.15 0.25L60.15 0.25Q60.05 0.25 59.95-0.2L59.95-0.2Q59.9-0.25 59.6-0.35L59.6-0.35Q59.45-0.9 59.25-0.95L59.25-0.95 59.25-2.3 59.65-2.75Q59.7-2.8 59.6-3.1L59.6-3.1Q59.65-3.2 59.7-3.3 59.75-3.4 59.85-3.5L59.85-3.5Q59.85-3.65 59.8-3.85L59.8-3.85Q59.9-4.15 60.1-4.3L60.1-4.3Q60.1-4.6 60.3-4.85L60.3-4.85Q60.4-4.85 60.85-5.45L60.85-5.45 61.35-6.2Q61.5-6.3 61.95-6.75L61.95-6.75 61.95-6.95Q62.1-7.05 62.25-7.25L62.25-7.25Q62.6-7.3 62.75-7.55L62.75-7.55Q62.75-7.6 62.75-7.7 62.75-7.8 62.8-7.9L62.8-7.9Q62.9-7.95 63-7.95 63.1-7.95 63.25-8L63.25-8Q63.35-8.3 63.5-8.4L63.5-8.4Q64.15-8.45 64.45-9.1L64.45-9.1Q64.5-9.1 64.67-9.22 64.84-9.35 64.9-9.35L64.9-9.35Q64.9-9.35 64.9-9.35L64.9-9.35 64.9-9.35Q64.84-9.3 65.05-9.25L65.05-9.25Q65.15-9.35 65.15-9.4L65.15-9.4Q65.4-9.55 65.59-9.55L65.59-9.55Q65.84-9.85 65.84-9.85L65.84-9.85Q65.9-9.85 65.92-9.8 65.95-9.75 66-9.75L66-9.75Q66.09-9.75 66.37-9.88 66.65-10 66.75-10L66.75-10 66.8-10Q66.75-9.95 66.84-9.95L66.84-9.95Q66.9-9.95 66.97-10.03 67.05-10.1 67.09-10.1L67.09-10.1Q67.2-10.1 67.3-10.03 67.4-9.95 67.45-9.95L67.45-9.95Q67.5-9.95 67.52-10 67.55-10.05 67.65-10.05L67.65-10.05Q67.65-10.05 67.65-10.05L67.65-10.05 67.65-10.05Q67.55-10.05 67.8-9.95L67.8-9.95Q67.84-10.15 68.05-10.15L68.05-10.15Q68.15-10.15 68.17-10.08 68.2-10 68.3-10L68.3-10Q68.34-10 68.34-10.05L68.34-10.05 68.45-10.05Q68.55-10.05 68.84-9.65L68.84-9.65Q68.95-9.75 68.95-9.75L68.95-9.75Q69.3-9.5 69.34-9.35L69.34-9.35 69.34-8.85 69.25-8.95Q68.95-8.85 68.65-8.85L68.65-8.85Q68.59-8.85 68.57-8.9 68.55-8.95 68.45-8.95L68.45-8.95Q68.4-8.95 68.32-8.9 68.25-8.85 68.2-8.85L68.2-8.85Q68.09-8.85 68.02-8.9 67.95-8.95 67.9-8.95L67.9-8.95Q67.84-8.95 67.84-8.9 67.84-8.85 67.75-8.85L67.75-8.85 67.7-8.85Q67.75-8.9 67.65-8.9L67.65-8.9Q67.59-8.9 67.07-8.65 66.55-8.4 66.5-8.4L66.5-8.4Q66.45-8.4 66.34-8.55L66.34-8.55 65.34-8.1 65-8.2Q64.95-8.2 64.75-8 64.55-7.8 64.45-7.8L64.45-7.8Q64.4-7.8 64.4-7.85L64.4-7.85 64.34-7.85Q64.15-7.85 63.97-7.63 63.8-7.4 63.45-7.3L63.45-7.3Q63.4-7.25 63.45-7.1L63.45-7.1Q63.2-6.55 62.8-6.4L62.8-6.4Q62.75-6.35 62.75-6.2L62.75-6.2 62.4-6.2Q62.35-6.15 62.35-5.85L62.35-5.85Q62.35-5.85 62.27-5.85 62.2-5.85 62.1-5.9L62.1-5.9Q61.95-5.65 62.05-5.4L62.05-5.4 61.55-5.4Q61.45-5.2 61.3-4.93 61.15-4.65 61-4.25L61-4.25Q60.95-4.1 60.82-3.88 60.7-3.65 60.6-3.35L60.6-3.35Q60.3-3 60.1-2.5L60.1-2.5 60.1-2.05Q60.1-2 60.05-1.85 60-1.7 60-1.6L60-1.6Q60.25-1.35 60.5-1.35L60.5-1.35Q60.65-1.35 60.87-1.43 61.1-1.5 61.3-1.9L61.3-1.9 61.45-1.8Q61.85-1.95 62.35-2.35L62.35-2.35Q62.4-2.4 62.6-2.45 62.8-2.5 62.8-2.7L62.8-2.7Q62.85-2.7 62.9-2.65L62.9-2.65 63.1-3Q63.65-3.1 63.7-3.6L63.7-3.6Q63.8-3.6 63.85-3.55L63.85-3.55 64.2-3.85Q64.2-3.95 64.25-4.05L64.25-4.05Q64.3-4.05 64.34-4.08 64.4-4.1 64.5-4.15L64.5-4.15 64.8-4.7Q64.95-4.85 65.3-4.9L65.3-4.9Q65.45-5 65.57-5.15 65.7-5.3 65.8-5.4L65.8-5.4Q65.75-5.5 65.7-5.6 65.65-5.7 65.55-5.8L65.55-5.8Q65.45-5.95 65.65-6.05L65.65-6.05Q65.55-6 65.55-6.15L65.55-6.15 65.55-6.45Q65.7-6.55 65.92-6.65 66.15-6.75 66.4-6.95L66.4-6.95Q66.59-7.05 66.65-7.05L66.65-7.05Q66.65-7.05 66.65-7.05L66.65-7.05 66.65-7.05Q66.5-7.05 66.75-6.95L66.75-6.95Q66.84-7.2 67-7.5 67.15-7.8 67.3-8.2L67.3-8.2 67.7-8.4Q67.7-8.4 67.8-8.1L67.8-8.1Q67.4-7.55 67.4-7.25L67.4-7.25Q67.4-7.1 67.9-6.95L67.9-6.95Q67.9-6.95 67.9-6.93 67.9-6.9 67.84-6.85L67.84-6.85Q68.05-6.7 68.17-6.55 68.3-6.4 68.34-6.3L68.34-6.3Q68-5.8 68-5.35L68-5.35 68.09-5.25Q68.05-5.2 68.05-4.85L68.05-4.85Q68.09-4.55 68.17-4.23 68.25-3.9 68.34-3.5L68.34-3.5 68.7-3 68.7-2.85Q68.7-2.15 69.2-1.65L69.2-1.65 69.34-1.75 69.34-1.6Q69.65-1.5 70-1.15L70-1.15 70.55-1.15Q70.7-0.95 70.84-0.95L70.84-0.95Q71.65-0.95 71.65-1.35L71.65-1.35Q71.65-1.35 71.75-1.25L71.75-1.25Q72.3-1.5 73.4-2.9L73.4-2.9Q74.15-3.8 74.25-3.75L74.25-3.75 74.45-3.7 74.45-3.5 74.5-3.45Q74.5-3.45 74.09-2.9L74.09-2.9Q74.09-2.7 73.7-2.4L73.7-2.4Q73.8-2.35 73.7-2.25L73.7-2.25 73.4-2.05 73.5-1.9Q73-1.75 72.7-1.5 72.4-1.25 72.45-1.15L72.45-1.15Q72.34-1.15 72.09-0.85L72.09-0.85Q71.9-0.85 71.9-0.65L71.9-0.65Q71.8-0.75 71.8-0.75L71.8-0.75 71.65-0.65Q71.65-0.65 71.57-0.6 71.5-0.55 71.4-0.45L71.4-0.45Q71.34-0.45 71.25-0.45 71.15-0.45 71.05-0.4L71.05-0.4 70.95-0.25 70.7-0.25Q70.65-0.3 70.59-0.3L70.59-0.3Q70.15-0.3 69.9-0.05L69.9-0.05 69.9-0.25 69.25-0.25 69.25-0.45Q69.15-0.35 69.09-0.35L69.09-0.35Q69-0.35 68.82-0.53 68.65-0.7 68.45-0.65L68.45-0.65Q68.2-1.05 67.87-1.48 67.55-1.9 67.45-1.8L67.45-1.8Q67.45-1.85 67.5-1.9L67.5-1.9Q67.34-2.05 67.3-2.35L67.3-2.35Q66.95-2.75 65.95-4.8L65.95-4.8Q65.75-4.6 65.45-4.25 65.15-3.9 64.75-3.5L64.75-3.5Q64.7-3.4 64.65-3.28 64.59-3.15 64.55-2.95L64.55-2.95 64.2-2.75Q64.2-2.65 64.17-2.53 64.15-2.4 64.09-2.2L64.09-2.2Q64.05-2.2 63.82-2 63.6-1.8 63.4-1.8L63.4-1.8Q63.35-1.8 63.25-1.9L63.25-1.9Q63.15-1.8 63-1.63 62.85-1.45 62.65-1.2L62.65-1.2Q62.7-1.15 62.95-1.15L62.95-1.15 62.95-0.95Q62.95-0.9 62.65-0.6L62.65-0.6 62.75-0.5Q62.6-0.4 62.1 0.1L62.1 0.1Q62.05 0.1 61.92 0.1 61.8 0.1 61.65 0.15L61.65 0.15Q61 0.4 61.25 0.4L61.25 0.4Q61.1 0.4 60.9 0.35L60.9 0.35 60.6 0.35Q60.5 0.35 60.5 0.45ZM72.59 8.7L72.54 8.75Q72.44 8.85 72.34 8.65L72.34 8.65Q72.34 8.5 72.39 8.2 72.44 7.9 72.49 7.75L72.49 7.75 73.14 5.3Q73.14 5.1 73.14 4.85 73.14 4.6 73.19 4.35L73.19 4.35Q73.29 4.25 73.39 4.13 73.49 4 73.59 3.8L73.59 3.8 73.44 3.35Q73.44 3.25 73.69 3.1L73.69 3.1Q73.49 2.9 73.59 2.6L73.59 2.6 73.99 1.5Q73.84 1.6 73.59 1.9L73.59 1.9Q73.49 1.8 73.34 1.75L73.34 1.75Q73.39 1.65 73.24 1.4L73.24 1.4 73.39 0.75Q73.74 0.55 73.74 0.25L73.74 0.25 73.69-0.2Q73.89-0.4 74.09-0.75L74.09-0.75Q74.04-0.8 74.04-1L74.04-1Q74.09-1.45 74.22-1.83 74.34-2.2 74.29-2.25L74.29-2.25 74.29-2.6 74.59-3.5Q74.49-3.6 74.49-3.65L74.49-3.65Q74.59-3.9 74.84-4.15L74.84-4.15 74.84-4.45 75.14-4.65 75.14-5.15Q75.29-5.15 75.34-5.2L75.34-5.2Q75.19-5.35 75.14-5.5L75.14-5.5Q75.69-5.75 75.39-6.15L75.39-6.15 75.54-6.8Q75.54-6.8 75.84-6.9L75.84-6.9Q75.79-7.1 75.74-7.1L75.74-7.1 75.99-7.35Q75.94-7.45 75.94-7.7L75.94-7.7 76.24-8.75 76.09-8.9Q76.19-9.15 76.29-9.53 76.39-9.9 76.59-10.4L76.59-10.4 76.24-10.4Q76.19-10.4 76.14-10.33 76.09-10.25 76.04-10.25L76.04-10.25Q75.94-10.25 75.99-10.3L75.99-10.3 75.94-10.3Q75.79-10.3 75.74-10.1L75.74-10.1Q75.74-10.2 75.69-10.2L75.69-10.2Q75.59-10.15 75.14-9.9L75.14-9.9Q75.09-9.9 74.97-9.88 74.84-9.85 74.69-9.8L74.69-9.8Q73.79-9.45 73.84-9.45L73.84-9.45Q73.79-9.45 73.69-9.6L73.69-9.6Q73.59-9.85 73.69-9.95L73.69-9.95Q73.64-10.05 73.64-10.35L73.64-10.35Q73.84-10.55 74.19-11.2L74.19-11.2Q74.44-11.2 74.79-11.55L74.79-11.55Q74.79-11.45 74.89-11.35L74.89-11.35Q74.89-11.4 74.94-11.45L74.94-11.45Q75.24-11.45 75.29-11.4L75.29-11.4 76.14-11.8Q76.14-11.75 76.24-11.65L76.24-11.65 76.39-11.75Q76.34-11.6 76.39-11.6L76.39-11.6Q76.49-11.6 76.99-12.05L76.99-12.05 77.34-12.35Q77.34-12.4 77.29-12.4L77.29-12.4 77.84-13.8Q77.79-13.8 77.69-13.9L77.69-13.9 77.89-14.05Q77.99-14.2 78.09-14.4 78.19-14.6 78.29-14.8L78.29-14.8Q78.29-15 78.29-15.25 78.29-15.5 78.34-15.75L78.34-15.75Q78.39-15.8 78.62-16.2 78.84-16.6 78.89-16.8L78.89-16.8Q78.99-17 79.14-17.38 79.29-17.75 79.44-18.5L79.44-18.5Q79.64-18.7 79.94-19.5L79.94-19.5Q79.94-19.4 79.99-19.4L79.99-19.4Q80.09-19.5 80.19-19.7L80.19-19.7Q80.24-19.85 80.09-20.15L80.09-20.15 80.19-20.2Q80.19-20.2 80.29-20.5L80.29-20.5Q80.34-20.55 80.42-20.6 80.49-20.65 80.54-20.75L80.54-20.75 80.99-22.05 81.04-22 81.14-22Q81.19-22.05 81.09-22.1L81.09-22.1 81.29-22.3Q81.29-22.4 81.29-22.5 81.29-22.6 81.34-22.75L81.34-22.75Q81.44-22.85 81.57-22.98 81.69-23.1 81.89-23.3L81.89-23.3 82.04-23.3Q82.04-23.3 82.04-23.28 82.04-23.25 82.09-23.2L82.09-23.2Q82.29-23.25 82.49-23.55L82.49-23.55Q82.49-23.55 82.52-23.55 82.54-23.55 82.59-23.5L82.59-23.5Q82.99-23.45 82.99-23.45 82.99-23.45 83.14-23.45L83.14-23.45 83.39-23.45Q83.79-23.45 83.94-23.3L83.94-23.3 84.19-23.3Q84.29-23.2 84.29-23.05L84.29-23.05 84.19-22.7Q84.04-22.15 83.89-21.85 83.74-21.55 83.44-21.1L83.44-21.1 83.19-20.75Q83.09-20.5 82.92-20.1 82.74-19.7 82.54-19.15L82.54-19.15Q82.49-19.15 82.47-19.15 82.44-19.15 82.39-18.95L82.39-18.95 82.24-18.6Q82.24-18.5 81.89-18L81.89-18Q81.79-17.9 81.74-17.35L81.74-17.35 81.34-16.4Q81.39-16.35 81.39-16.3L81.39-16.3Q81.04-16.05 80.94-16.05L80.94-16.05Q80.84-16.05 80.74-16.15L80.74-16.15 80.94-16.65 80.89-16.7Q80.79-16.6 80.79-16.55L80.79-16.55Q80.59-16.45 80.54-16.3L80.54-16.3 80.09-15.1 79.74-14.45 79.09-12.6Q78.99-12.3 79.09-12.2L79.09-12.2Q79.09-12.2 79.29-12.3L79.29-12.3Q79.54-11.9 79.34-11.9L79.34-11.9Q79.59-11.9 79.64-11.9 79.69-11.9 79.59-11.95L79.59-11.95Q79.64-12 79.82-12.1 79.99-12.2 80.54-12.35L80.54-12.35Q80.59-12.15 80.69-12.15L80.69-12.15Q80.79-12.15 81.09-12.33 81.39-12.5 81.44-12.5L81.44-12.5Q81.44-12.5 81.52-12.45 81.59-12.4 81.69-12.3L81.69-12.3 81.84-12.4 82.99-12.75Q82.99-12.75 82.99-12.75L82.99-12.75 82.99-12.75Q82.99-12.75 83.04-12.6L83.04-12.6Q83.14-12.65 83.19-12.68 83.24-12.7 83.24-12.7L83.24-12.7Q83.29-12.7 83.39-12.6L83.39-12.6Q83.99-13 84.59-13.2L84.59-13.2Q84.64-13.2 84.64-13.15L84.64-13.15 84.69-13.15Q84.74-13.15 85.02-13.25 85.29-13.35 85.39-13.35L85.39-13.35Q85.39-13.25 85.24-13.1L85.24-13.1Q84.94-13.05 84.67-12.78 84.39-12.5 84.34-12.5L84.34-12.5 84.29-12.5Q84.34-12.55 84.29-12.55L84.29-12.55Q84.44-12.55 82.84-12.1L82.84-12.1Q82.69-12.05 82.24-11.83 81.79-11.6 81.74-11.6L81.74-11.6 80.94-11.35Q80.89-11.35 80.94-11.4L80.94-11.4Q80.94-11.45 80.89-11.45L80.89-11.45Q80.84-11.45 80.82-11.38 80.79-11.3 80.74-11.3L80.74-11.3Q79.59-11.3 79.34-10.9L79.34-10.9 79.19-10.9Q79.14-10.9 79.07-10.95 78.99-11 78.89-11L78.89-11Q78.74-11 78.49-10.75L78.49-10.75Q78.44-10.55 78.34-10.3 78.24-10.05 78.14-9.7L78.14-9.7Q78.14-9.7 77.79-8.7L77.79-8.7Q77.59-8.15 77.39-7.58 77.19-7 76.94-6.45L76.94-6.45Q76.89-6.25 76.79-5.9 76.69-5.55 76.59-5.1L76.59-5.1Q76.19-3.5 75.24-0.65L75.24-0.65Q75.09-0.25 74.94 0L74.94 0Q74.99 0.05 74.99 0.35L74.99 0.35Q74.94 0.45 74.89 0.6 74.84 0.75 74.74 0.85L74.74 0.85 74.74 1.05Q74.74 1.2 74.44 1.75L74.44 1.75Q74.54 2.1 74.44 2.2L74.44 2.2Q74.09 3.6 73.79 3.95L73.79 3.95 73.79 4.1Q73.79 4.25 73.74 4.48 73.69 4.7 73.59 4.95L73.59 4.95Q73.39 5.75 73.14 6.68 72.89 7.6 72.59 8.7L72.59 8.7ZM81.39-16.3L81.39-16.3Q81.39-16.3 81.39-16.3L81.39-16.3ZM75.74-7.1L75.74-7.1Q75.74-7.15 75.74-7.1L75.74-7.1ZM83.29 0.8L83.29 0.8Q82.89 0.55 82.89 0.55L82.89 0.55Q82.84 0.55 82.82 0.6 82.79 0.65 82.74 0.65L82.74 0.65Q82.69 0.65 82.59 0.6 82.49 0.55 82.44 0.55L82.44 0.55 81.99 0.55 81.99 0.4Q81.49 0.2 81.24 0.03 80.99-0.15 80.64-0.5L80.64-0.5 80.19-1.75Q80.39-1.9 80.39-2.1L80.39-2.1Q80.39-2.15 80.29-2.35 80.19-2.55 80.19-2.6L80.19-2.6Q80.19-2.7 80.24-3.18 80.29-3.65 80.74-4.45L80.74-4.45 81.39-5.65Q81.59-5.85 81.79-6.13 81.99-6.4 82.34-6.65L82.34-6.65Q82.49-6.7 83.24-7.5L83.24-7.5 83.99-8.1Q84.19-8.15 84.49-8.6L84.49-8.6Q85.14-8.85 85.19-8.9L85.19-8.9Q85.19-8.95 85.19-8.95L85.19-8.95 85.14-8.95Q85.14-8.95 85.19-8.95L85.19-8.95Q85.19-8.95 85.19-8.9L85.19-8.9Q85.24-8.9 85.29-8.8L85.29-8.8 85.74-9.15 86.19-9.15Q86.29-9.15 86.59-9.25 86.89-9.35 86.94-9.35L86.94-9.35Q87.09-9.35 87.29-9.15L87.29-9.15 87.79-9.15 87.79-8.95 88.29-8.7Q88.69-8.15 88.79-8.15L88.79-8.15Q88.79-7.7 88.94-7L88.94-7Q88.69-6.85 88.49-6.5L88.49-6.5 88.34-6.5Q88.24-6.5 88.12-6.6 87.99-6.7 87.94-6.7L87.94-6.7Q87.99-6.65 87.79-6.6L87.79-6.6Q87.74-6.65 87.64-6.73 87.54-6.8 87.54-6.85L87.54-6.85 87.29-6.75Q87.24-6.75 86.97-6.88 86.69-7 86.64-7L86.64-7Q86.59-7 86.57-6.93 86.54-6.85 86.49-6.85L86.49-6.85Q86.39-6.85 86.44-6.9L86.44-6.9 86.39-6.9Q86.39-6.9 86.29-6.8L86.29-6.8 85.59-6.6Q85.49-6.55 85.34-6.43 85.19-6.3 84.94-6.2L84.94-6.2 84.79-6.2 84.79-6.5Q84.89-6.55 85.04-6.65 85.19-6.75 85.39-6.85L85.39-6.85 85.39-6.95Q85.14-7.2 84.99-7.2L84.99-7.2Q84.49-7.2 83.79-6.5L83.79-6.5Q83.74-6.5 83.59-6.4 83.44-6.3 83.09-5.9L83.09-5.9Q82.99-5.9 82.94-5.85L82.94-5.85Q81.94-4.7 81.99-4.5L81.99-4.5Q81.94-4.45 81.84-4.15L81.84-4.15 81.64-4.05Q81.74-3.9 81.64-3.6L81.64-3.6 81.14-2.55Q81.14-2.2 80.84-1.75L80.84-1.75Q80.89-1.7 80.92-1.63 80.94-1.55 81.09-1.5L81.09-1.5Q81.24-1.25 81.49-0.75 81.74-0.25 81.89-0.25L81.89-0.25Q81.89-0.3 82.04-0.35L82.04-0.35Q82.04-0.2 82.09-0.1L82.09-0.1 82.34 0.05Q82.39 0.05 82.42 0 82.44-0.05 82.49-0.05L82.49-0.05Q82.49-0.05 82.69 0.05L82.69 0.05 83.44 0.05Q83.44 0.15 83.54 0.15L83.54 0.15Q83.59 0.15 83.62 0.1 83.64 0.05 83.69 0.05L83.69 0.05Q83.74 0.05 83.82 0.1 83.89 0.15 83.94 0.15L83.94 0.15Q84.04 0.15 84.27 0 84.49-0.15 84.54-0.15L84.54-0.15 84.64-0.15Q84.64-0.1 84.69-0.1L84.69-0.1 85.39-0.25Q85.54-0.3 85.77-0.43 85.99-0.55 86.04-0.55L86.04-0.55Q86.14-0.55 86.12-0.5 86.09-0.45 86.19-0.45L86.19-0.45Q86.04-0.5 86.69-0.85L86.69-0.85 87.64-1.2Q87.94-1.4 88.24-1.7L88.24-1.7 88.99-2.05Q89.14-2.1 89.99-2.8L89.99-2.8 90.44-3 90.69-3.3Q90.84-3.3 90.89-3.35L90.89-3.35 92.44-4.85Q92.54-4.85 92.64-4.9L92.64-4.9Q92.64-4.9 92.74-5 92.84-5.1 93.14-5.3L93.14-5.3Q93.14-5.15 93.04-5.05L93.04-5.05Q92.84-4.95 92.59-4.7 92.34-4.45 92.09-4.1L92.09-4.1Q91.89-3.9 91.57-3.55 91.24-3.2 90.74-2.8L90.74-2.8 88.49-1.3Q88.14-1.1 87.89-1 87.64-0.9 87.49-0.85L87.49-0.85 87.14-0.5Q86.39-0.3 86.02-0.08 85.64 0.15 85.44 0.15L85.44 0.15 85.39 0.15Q85.39 0.1 85.34 0.1L85.34 0.1Q85.34 0.1 85.14 0.23 84.94 0.35 84.49 0.4L84.49 0.4Q84.44 0.4 84.44 0.55L84.44 0.55Q84.14 0.45 84.14 0.45L84.14 0.45Q84.09 0.45 83.94 0.55 83.79 0.65 83.74 0.65L83.74 0.65 83.64 0.65Q83.64 0.6 83.59 0.6L83.59 0.6Q83.34 0.6 83.29 0.8ZM94.34-0.05L94.34-0.05Q94.34-0.05 94.39-0.05L94.39-0.05Q94.34-0.2 93.84-0.45L93.84-0.45Q93.89-0.55 93.89-0.63 93.89-0.7 93.89-0.7L93.89-0.7Q93.89-0.75 93.84-0.8L93.84-0.8 93.84-0.9Q93.84-1.1 93.69-1.4L93.69-1.4 93.69-2.05Q93.89-2.15 93.94-2.5L93.94-2.5Q93.94-2.6 93.99-2.65L93.99-2.65Q93.94-2.85 93.94-2.95 93.94-3.05 93.94-3.1L93.94-3.1 94.09-3.3Q94.24-3.9 94.24-4.5L94.24-4.5 94.39-4.7 94.64-5.8 94.94-6.55 95.14-6.7Q95.14-7.1 95.34-7.55L95.34-7.55 95.34-7.65Q95.29-7.7 95.24-7.7L95.24-7.7Q95.14-7.7 93.74-6.75L93.74-6.75Q93.49-6.55 93.24-6.55L93.24-6.55 93.19-6.55Q93.19-6.6 93.14-6.6L93.14-6.6Q93.09-6.6 92.86-6.4 92.64-6.2 92.54-6.2L92.54-6.2Q92.54-6.2 92.54-6.2L92.54-6.2 92.54-6.2Q92.59-6.25 92.39-6.3L92.39-6.3Q92.59-6.45 92.59-6.55L92.59-6.55Q93.54-6.75 94.14-7.6L94.14-7.6Q94.29-7.65 94.74-8L94.74-8Q94.84-8.05 94.99-8.1 95.14-8.15 95.24-8.4L95.24-8.4 95.49-8.6Q95.49-8.6 95.64-8.68 95.79-8.75 96.04-8.95L96.04-8.95Q96.04-9.15 96.34-9.6L96.34-9.6Q96.54-9.85 96.59-10.35L96.59-10.35Q96.79-10.45 96.81-10.6 96.84-10.75 96.89-10.95L96.89-10.95Q97.19-11.5 97.19-11.9L97.19-11.9 97.39-11.9Q97.44-11.9 97.44-11.95L97.44-11.95Q97.44-11.95 97.44-11.95 97.44-11.95 97.44-11.95L97.44-11.95Q97.44-11.95 97.41-12.05 97.39-12.15 97.39-12.35L97.39-12.35Q97.39-12.55 97.64-13.15 97.89-13.75 97.89-13.7L97.89-13.7Q97.99-13.85 98.09-13.85L98.09-13.85Q98.24-13.85 98.29-13.6 98.34-13.35 98.34-13.3L98.34-13.3Q98.54-13.35 98.54-13.7L98.54-13.7 98.54-14.25Q98.59-14.3 98.74-14.48 98.89-14.65 98.94-15.35L98.94-15.35Q99.44-15.85 99.94-17.4L99.94-17.4Q100.09-17.4 100.14-17.35L100.14-17.35 100.14-17.55Q100.39-18 100.76-18.63 101.14-19.25 101.64-20L101.64-20 101.94-20.65Q102.19-21.2 102.64-21.9 103.09-22.6 103.69-23.4L103.69-23.4Q103.94-23.65 104.29-23.85L104.29-23.85Q104.39-23.95 104.51-24.15 104.64-24.35 104.84-24.6L104.84-24.6Q104.99-24.55 105.04-24.5L105.04-24.5Q104.99-24.5 105.44-24.85L105.44-24.85Q105.69-24.95 105.89-25.2L105.89-25.2 105.84-25.45 106.04-26.1Q106.09-26.1 106.24-26.23 106.39-26.35 106.44-26.35L106.44-26.35Q106.54-26.35 106.66-26.38 106.79-26.4 106.89-26.4L106.89-26.4Q108.04-26.4 108.34-25.3L108.34-25.3 108.59-24.45 108.19-24.25 107.49-23.55Q107.34-23.5 107.14-23.33 106.94-23.15 106.69-23L106.69-23 105.69-22.1Q105.69-22.05 105.59-21.85L105.59-21.85Q105.44-21.8 104.99-21.45L104.99-21.45Q104.84-21.1 104.34-20.65L104.34-20.65Q104.24-20.3 104.04-20.1L104.04-20.1Q103.09-18.85 102.24-18L102.24-18Q102.19-18 102.09-17.82 101.99-17.65 101.69-17.35L101.69-17.35Q101.64-17.3 101.64-17L101.64-17Q101.54-17.05 101.34-16.75 101.14-16.45 101.14-16.45L101.14-16.45 101.14-16.25Q100.94-16.05 100.79-15.75L100.79-15.75Q100.84-15.6 100.84-15.5L100.84-15.5Q100.54-15.3 100.24-15L100.24-15 99.74-13.9Q99.74-13.7 99.69-13.55L99.69-13.55Q99.54-13.55 99.14-13.25L99.14-13.25Q98.89-12.65 98.94-12.45L98.94-12.45Q98.64-12.35 98.54-12.1L98.54-12.1 98.04-11Q98.04-10.9 98.19-10.75L98.19-10.75Q98.44-10.95 98.76-11.28 99.09-11.6 99.49-12L99.49-12Q99.59-12.1 99.49-12.15L99.49-12.15Q99.89-12.4 100.26-12.7 100.64-13 100.69-13.45L100.69-13.45Q100.99-13.75 101.04-13.9L101.04-13.9Q101.09-13.85 101.14-13.85L101.14-13.85Q101.44-13.9 101.49-14.13 101.54-14.35 102.04-14.5L102.04-14.5Q102.59-15.15 102.74-15.5L102.74-15.5 103.04-16.15Q103.04-16.3 103.09-16.35L103.09-16.35Q103.39-16.5 103.34-16.5L103.34-16.5Q103.39-16.5 103.44-16.45L103.44-16.45 103.54-16.45Q103.79-16.45 103.94-16.85L103.94-16.85 104.14-16.95Q104.14-17.15 104.51-17.43 104.89-17.7 105.04-17.9L105.04-17.9 105.04-18.05 105.89-19.35Q105.84-19.4 105.84-19.75L105.84-19.75 106.59-20.2Q106.74-20.8 107.34-21.45L107.34-21.45Q107.29-21.5 107.29-21.6L107.29-21.6Q107.29-21.7 107.44-21.85 107.59-22 107.89-22L107.89-22Q107.89-22.05 107.94-22.1L107.94-22.1 108.09-22.6Q108.89-23.75 108.89-24.3L108.89-24.3Q108.99-24.35 109.19-24.65L109.19-24.65Q109.54-24.65 109.59-25.35L109.59-25.35Q109.79-25.7 109.94-26.15 110.09-26.6 110.29-27.15L110.29-27.15Q110.54-27.55 110.54-28.2L110.54-28.2Q110.64-28.2 110.64-28.3L110.64-28.3Q110.64-28.4 110.51-28.58 110.39-28.75 110.39-28.75L110.39-28.75Q110.34-28.85 110.34-28.95L110.34-28.95Q110.34-29.25 110.69-29.4L110.69-29.4Q110.69-29.4 110.69-29.43 110.69-29.45 110.74-29.45L110.74-29.45 110.89-28.95Q110.94-28.9 110.94-28.45L110.94-28.45Q110.89-27.9 110.86-27.63 110.84-27.35 110.76-27.1 110.69-26.85 110.44-26.2L110.44-26.2Q110.39-26.05 110.54-25.95L110.54-25.95 110.39-25.5Q110.34-25.3 110.19-24.95 110.04-24.6 109.89-24.15L109.89-24.15Q109.64-24 109.29-23.05L109.29-23.05Q109.24-23.05 109.19-23.1L109.19-23.1Q108.94-22.85 109.09-22.6L109.09-22.6 109.09-22.45Q108.84-22.2 108.64-21.83 108.44-21.45 108.24-21L108.24-21Q108.04-20.8 107.74-20.1L107.74-20.1Q107.74-20.1 107.64-20L107.64-20Q107.39-19.9 106.74-19L106.74-19Q106.54-18.65 106.34-18.35 106.14-18.05 105.94-17.75L105.94-17.75Q105.89-17.75 105.79-17.68 105.69-17.6 105.59-17.6L105.59-17.6Q105.54-17.6 105.54-17.65L105.54-17.65 105.49-17.65Q105.34-17.65 105.04-17.2L105.04-17.2 105.04-16.9 104.69-16.4Q104.54-16.4 104.44-16.25L104.44-16.25 103.39-15.2Q103.39-15.2 103.29-14.9L103.29-14.9Q103.04-14.55 102.14-14L102.14-14 101.84-13.65 100.64-12.4 100.49-12.4 99.59-11.35Q98.99-10.95 98.89-10.7L98.89-10.7Q98.54-10.55 98.29-10.3 98.04-10.05 97.84-9.85L97.84-9.85 97.74-9.85Q96.44-8.55 96.14-6.8L96.14-6.8Q96.04-6.7 95.74-5.9L95.74-5.9Q95.64-5.65 95.51-5.28 95.39-4.9 95.24-4.4L95.24-4.4Q95.19-4.3 95.09-4.08 94.99-3.85 94.89-3.6L94.89-3.6Q94.89-3.5 94.89-3.38 94.89-3.25 94.84-3.05L94.84-3.05 94.64-2.65Q94.44-2.3 94.39-1.9 94.34-1.5 94.34-1.25L94.34-1.25Q94.34-0.85 94.69-0.85L94.69-0.85Q94.94-0.85 95.14-1L95.14-1Q95.14-1.15 95.04-1.25L95.04-1.25Q95.09-1.25 95.21-1.33 95.34-1.4 95.59-1.65L95.59-1.65Q95.59-1.65 95.66-1.7 95.74-1.75 95.79-1.85L95.79-1.85Q96.04-1.95 96.69-2.65L96.69-2.65Q97.19-3.2 97.19-3.3L97.19-3.3Q97.19-3.3 97.29-3.2L97.29-3.2 97.59-3.5Q97.69-3.5 98.14-4L98.14-4 98.84-4.6Q98.84-4.6 98.89-4.6 98.94-4.6 98.99-4.65L98.99-4.65Q99.04-4.8 99.64-5.4L99.64-5.4Q99.74-5.45 99.91-5.55 100.09-5.65 100.34-5.8L100.34-5.8Q100.39-6.1 100.54-6.15 100.69-6.2 101.14-6.45L101.14-6.45Q101.64-6.7 101.69-6.7L101.69-6.7Q101.74-6.7 101.74-6.65L101.74-6.65 101.84-6.65Q101.94-6.65 102.06-6.8 102.19-6.95 102.54-7L102.54-7Q102.59-7.2 102.84-7.2L102.84-7.2Q103.09-7.2 103.14-7L103.14-7Q103.19-7 103.26-7.05 103.34-7.1 103.39-7.1L103.39-7.1Q103.49-7.1 103.54-7.05 103.59-7 103.64-7L103.64-7Q103.69-7 103.71-7.05 103.74-7.1 103.84-7.1L103.84-7.1Q103.69-7.1 104.29-6.85L104.29-6.85Q104.34-6.7 104.61-6.3 104.89-5.9 105.24-5.75L105.24-5.75Q105.24-5.6 105.84-5L105.84-5Q105.94-4.9 106.06-4.7 106.19-4.5 106.39-4.25L106.39-4.25Q106.64-4.1 106.79-3.85L106.79-3.85 106.99-3.5Q106.99-3.45 107.24-3.3L107.24-3.3Q107.64-2.95 108.29-2.55L108.29-2.55Q108.34-2.5 108.41-2.43 108.49-2.35 108.54-2.35L108.54-2.35Q108.59-2.35 108.69-2.4L108.69-2.4Q108.74-2.2 109.09-2.05L109.09-2.05 109.14-2.05Q109.14-2.1 109.19-2.1L109.19-2.1Q109.24-2.1 109.34-2 109.44-1.9 109.59-1.9L109.59-1.9 109.79-1.9Q109.94-1.9 109.84-2.05L109.84-2.05 110.09-2 110.19-1.9Q110.54-2.15 110.44-2.3L110.44-2.3Q110.79-2.25 110.84-2.3L110.84-2.3Q110.99-2.25 110.99-2L110.99-2Q110.99-1.9 110.64-1.4L110.64-1.4Q110.49-1.35 110.19-1.2 109.89-1.05 109.84-1.05L109.84-1.05Q109.79-1.05 109.64-1.13 109.49-1.2 109.39-1.15L109.39-1.15 108.84-1.05Q108.79-1.05 108.51-1.1 108.24-1.15 108.14-1.15L108.14-1.15Q107.89-1.15 106.69-1.9L106.69-1.9 106.14-2.4Q105.89-2.5 105.14-3.1L105.14-3.1Q104.29-3.8 104.39-3.8L104.39-3.8Q104.29-3.75 104.24-3.75L104.24-3.75Q104.24-3.9 104.19-4L104.19-4Q103.39-4.5 103.39-4.8L103.39-4.8Q103.39-4.85 103.24-4.85L103.24-4.85Q103.09-5.05 102.94-5.05L102.94-5.05Q102.84-5.05 102.69-5 102.54-4.95 102.49-4.95L102.49-4.95Q102.34-4.95 102.04-5.35L102.04-5.35Q101.94-5.35 101.74-5.38 101.54-5.4 101.29-5.45L101.29-5.45Q101.04-5.2 100.94-4.95L100.94-4.95Q100.39-4.7 100.44-4.45L100.44-4.45Q99.59-4.25 99.24-3.9L99.24-3.9Q99.24-3.8 99.34-3.8L99.34-3.8Q99.09-3.6 98.99-3.5 98.89-3.4 98.74-3.4L98.74-3.4 98.14-3Q98.04-2.9 97.86-2.75 97.69-2.6 97.44-2.4L97.44-2.4Q97.44-2.4 97.26-2.33 97.09-2.25 96.69-2.05L96.69-2.05 95.94-1.1Q95.79-1.05 95.54-0.7L95.54-0.7Q95.39-0.65 95.06-0.35 94.74-0.05 94.59-0.05L94.59-0.05Q94.49-0.05 94.51-0.1 94.54-0.15 94.49-0.15L94.49-0.15Q94.39-0.15 94.39-0.05L94.39-0.05Q94.39-0.05 94.34-0.05ZM91.74-5.65L91.54-5.65Q91.54-5.75 91.61-5.83 91.69-5.9 92.04-6L92.04-6Q92.19-6.2 92.34-6.2L92.34-6.2Q92.39-6.2 92.49-6.1L92.49-6.1Q92.29-6.05 91.74-5.65L91.74-5.65ZM114.24 0.05L113.99 0.2Q113.84 0.2 113.74-0.05L113.74-0.05Q113.69 0 113.69 0.05L113.69 0.05 113.39 0.05 113.24-0.25Q113.19-0.2 113.19-0.15L113.19-0.15Q113.14-0.15 113.04-0.25L113.04-0.25 112.89-0.15Q112.64-0.4 112.36-0.83 112.09-1.25 112.04-1.7L112.04-1.7Q111.99-1.75 111.84-1.75L111.84-1.75 111.84-2.15Q112.04-2.2 112.09-2.95L112.09-2.95 112.24-3.15 112.24-3.4 112.14-3.5 112.34-3.65 112.89-5.2 113.39-5.75 113.39-5.9Q113.99-6.3 114.14-6.75L114.14-6.75Q114.34-6.75 114.34-6.95L114.34-6.95Q114.99-7.15 114.84-7.6L114.84-7.6Q114.94-7.65 114.96-7.65 114.99-7.65 114.99-7.65L114.99-7.65Q115.04-7.65 115.19-7.58 115.34-7.5 115.39-7.5L115.39-7.5Q115.49-7.5 115.56-7.55 115.64-7.6 115.69-7.6L115.69-7.6Q115.89-7.4 115.94-7.4L115.94-7.4Q116.19-7.4 116.44-7.6L116.44-7.6Q116.44-7.55 116.49-7.45 116.54-7.35 116.54-7.3L116.54-7.3Q116.54-7.05 116.34-6.85L116.34-6.85 116.49-6.65Q116.49-6.3 115.89-5.55L115.89-5.55Q115.29-4.9 115.04-4.8L115.04-4.8Q114.99-4.75 114.94-4.63 114.89-4.5 114.79-4.4L114.79-4.4 114.69-4.4 114.59-4.5 114.09-3.85Q114.09-3.65 113.69-3.1L113.69-3.1Q113.54-3.05 113.46-3.08 113.39-3.1 113.39-3.05L113.39-3.05 113.39-2.7Q113.64-2.25 113.59-2.1L113.59-2.1Q113.44-1.8 113.44-1.75L113.44-1.75Q113.44-1.8 113.74-1.35L113.74-1.35Q113.69-1.3 113.69-1L113.69-1Q114.09-0.95 114.74-0.55L114.74-0.55 114.94-0.55Q115.14-0.55 115.21-0.63 115.29-0.7 115.29-0.7L115.29-0.7Q115.34-0.7 115.34-0.65L115.34-0.65 115.39-0.65Q115.44-0.65 115.64-0.85 115.84-1.05 115.89-1.05L115.89-1.05Q115.94-1.05 115.94-1 115.94-0.95 115.99-0.95L115.99-0.95Q116.04-0.95 116.19-1 116.34-1.05 116.44-1.05L116.44-1.05 116.44-1.2Q116.39-1.25 116.44-1.25L116.44-1.25 116.44-1.2Q116.49-1.15 116.79-1.05L116.79-1.05 116.74-1.25Q116.89-1.3 116.99-1.55L116.99-1.55Q117.24-1.55 117.46-1.63 117.69-1.7 117.69-1.85L117.69-1.85 118.09-1.85Q118.09-1.75 118.19-1.75L118.19-1.75Q118.69-1.75 118.74-2.4L118.74-2.4 119.04-2.7Q119.04-2.7 119.14-2.6L119.14-2.6Q119.34-2.8 119.49-2.8L119.49-2.8Q119.54-2.8 119.56-2.75 119.59-2.7 119.69-2.7L119.69-2.7Q119.84-2.7 119.99-2.85 120.14-3 120.14-3.05L120.14-3.05Q120.24-3.15 120.39-3.25 120.54-3.35 120.64-3.55L120.64-3.55 120.94-3.4Q120.89-3.45 121.99-4.3L121.99-4.3Q122.49-4.5 122.49-4.6L122.49-4.6Q122.69-4.6 122.89-4.75L122.89-4.75 122.89-4.9 123.59-5.25 123.59-4.95 123.34-4.95Q123.29-4.9 123.29-4.65L123.29-4.65 122.14-3.75Q122.04-3.75 122.09-3.8L122.09-3.8 122.04-3.8Q122.09-3.8 121.59-3.3L121.59-3.3Q121.49-3.2 121.19-3.2L121.19-3.2Q120.54-2.6 120.69-2.65L120.69-2.65Q120.69-2.65 120.69-2.65L120.69-2.65 120.69-2.65Q120.64-2.7 120.59-2.7L120.59-2.7Q120.54-2.65 120.54-2.5L120.54-2.5 120.49-2.5Q120.29-2.5 119.89-2.1L119.89-2.1Q119.84-2.1 119.74-2.1 119.64-2.1 119.54-2.05L119.54-2.05Q119.34-1.9 119.06-1.68 118.79-1.45 118.44-1.15L118.44-1.15 118.14-1.15Q117.79-0.85 117.64-0.85L117.64-0.85 117.49-0.85Q117.44-0.9 117.39-0.9L117.39-0.9Q117.34-0.9 117.01-0.7 116.69-0.5 116.59-0.5L116.59-0.5 116.54-0.5Q116.54-0.55 116.49-0.55L116.49-0.55Q116.44-0.55 116.11-0.38 115.79-0.2 115.74-0.2L115.74-0.2 115.69-0.2Q115.69-0.25 115.59-0.25L115.59-0.25Q115.54-0.25 115.46-0.2 115.39-0.15 115.19-0.1L115.19-0.1Q114.69 0.15 114.89 0.15L114.89 0.15Q114.84 0.15 114.59 0.1 114.34 0.05 114.24 0.05L114.24 0.05ZM123.99-5.35L123.99-5.35Q123.94-5.35 123.91-5.43 123.89-5.5 123.84-5.5L123.84-5.5 124.54-6.25Q124.74-6.25 124.74-6.15L124.74-6.15Q124.74-5.95 124.41-5.68 124.09-5.4 123.99-5.35ZM117.44-9.35L117.44-9.35Q117.04-9.35 116.34-9.9L116.34-9.9Q115.74-10.5 115.74-10.85L115.74-10.85Q116.34-11.1 117.06-11.43 117.79-11.75 118.59-12.15L118.59-12.15 118.64-12.15Q118.44-11.6 118.09-11.25L118.09-11.25 118.19-10.9 118.19-10.6 117.94-10.3Q117.94-9.35 117.44-9.35ZM120.78 8.7L120.73 8.75Q120.63 8.85 120.53 8.65L120.53 8.65Q120.53 8.5 120.58 8.2 120.63 7.9 120.68 7.75L120.68 7.75 121.33 5.3Q121.33 5.1 121.33 4.85 121.33 4.6 121.38 4.35L121.38 4.35Q121.48 4.25 121.58 4.13 121.68 4 121.78 3.8L121.78 3.8 121.63 3.35Q121.63 3.25 121.88 3.1L121.88 3.1Q121.68 2.9 121.78 2.6L121.78 2.6 122.18 1.5Q122.03 1.6 121.78 1.9L121.78 1.9Q121.68 1.8 121.53 1.75L121.53 1.75Q121.58 1.65 121.43 1.4L121.43 1.4 121.58 0.75Q121.93 0.55 121.93 0.25L121.93 0.25 121.88-0.2Q122.08-0.4 122.28-0.75L122.28-0.75Q122.23-0.8 122.23-1L122.23-1Q122.28-1.45 122.41-1.83 122.53-2.2 122.48-2.25L122.48-2.25 122.48-2.6 122.78-3.5Q122.68-3.6 122.68-3.65L122.68-3.65Q122.78-3.9 123.03-4.15L123.03-4.15 123.03-4.45 123.33-4.65 123.33-5.15Q123.48-5.15 123.53-5.2L123.53-5.2Q123.38-5.35 123.33-5.5L123.33-5.5Q123.88-5.75 123.58-6.15L123.58-6.15 123.73-6.8Q123.73-6.8 124.03-6.9L124.03-6.9Q123.98-7.1 123.93-7.1L123.93-7.1 124.18-7.35Q124.13-7.45 124.13-7.7L124.13-7.7 124.43-8.75 124.28-8.9Q124.38-9.15 124.48-9.53 124.58-9.9 124.78-10.4L124.78-10.4 124.43-10.4Q124.38-10.4 124.33-10.33 124.28-10.25 124.23-10.25L124.23-10.25Q124.13-10.25 124.18-10.3L124.18-10.3 124.13-10.3Q123.98-10.3 123.93-10.1L123.93-10.1Q123.93-10.2 123.88-10.2L123.88-10.2Q123.78-10.15 123.33-9.9L123.33-9.9Q123.28-9.9 123.16-9.88 123.03-9.85 122.88-9.8L122.88-9.8Q121.98-9.45 122.03-9.45L122.03-9.45Q121.98-9.45 121.88-9.6L121.88-9.6Q121.78-9.85 121.88-9.95L121.88-9.95Q121.83-10.05 121.83-10.35L121.83-10.35Q122.03-10.55 122.38-11.2L122.38-11.2Q122.63-11.2 122.98-11.55L122.98-11.55Q122.98-11.45 123.08-11.35L123.08-11.35Q123.08-11.4 123.13-11.45L123.13-11.45Q123.43-11.45 123.48-11.4L123.48-11.4 124.33-11.8Q124.33-11.75 124.43-11.65L124.43-11.65 124.58-11.75Q124.53-11.6 124.58-11.6L124.58-11.6Q124.68-11.6 125.18-12.05L125.18-12.05 125.53-12.35Q125.53-12.4 125.48-12.4L125.48-12.4 126.03-13.8Q125.98-13.8 125.88-13.9L125.88-13.9 126.08-14.05Q126.18-14.2 126.28-14.4 126.38-14.6 126.48-14.8L126.48-14.8Q126.48-15 126.48-15.25 126.48-15.5 126.53-15.75L126.53-15.75Q126.58-15.8 126.81-16.2 127.03-16.6 127.08-16.8L127.08-16.8Q127.18-17 127.33-17.38 127.48-17.75 127.63-18.5L127.63-18.5Q127.83-18.7 128.13-19.5L128.13-19.5Q128.13-19.4 128.18-19.4L128.18-19.4Q128.28-19.5 128.38-19.7L128.38-19.7Q128.43-19.85 128.28-20.15L128.28-20.15 128.38-20.2Q128.38-20.2 128.48-20.5L128.48-20.5Q128.53-20.55 128.61-20.6 128.68-20.65 128.73-20.75L128.73-20.75 129.18-22.05 129.23-22 129.33-22Q129.38-22.05 129.28-22.1L129.28-22.1 129.48-22.3Q129.48-22.4 129.48-22.5 129.48-22.6 129.53-22.75L129.53-22.75Q129.63-22.85 129.76-22.98 129.88-23.1 130.08-23.3L130.08-23.3 130.23-23.3Q130.23-23.3 130.23-23.28 130.23-23.25 130.28-23.2L130.28-23.2Q130.48-23.25 130.68-23.55L130.68-23.55Q130.68-23.55 130.71-23.55 130.73-23.55 130.78-23.5L130.78-23.5Q131.18-23.45 131.18-23.45 131.18-23.45 131.33-23.45L131.33-23.45 131.58-23.45Q131.98-23.45 132.13-23.3L132.13-23.3 132.38-23.3Q132.48-23.2 132.48-23.05L132.48-23.05 132.38-22.7Q132.23-22.15 132.08-21.85 131.93-21.55 131.63-21.1L131.63-21.1 131.38-20.75Q131.28-20.5 131.11-20.1 130.93-19.7 130.73-19.15L130.73-19.15Q130.68-19.15 130.66-19.15 130.63-19.15 130.58-18.95L130.58-18.95 130.43-18.6Q130.43-18.5 130.08-18L130.08-18Q129.98-17.9 129.93-17.35L129.93-17.35 129.53-16.4Q129.58-16.35 129.58-16.3L129.58-16.3Q129.23-16.05 129.13-16.05L129.13-16.05Q129.03-16.05 128.93-16.15L128.93-16.15 129.13-16.65 129.08-16.7Q128.98-16.6 128.98-16.55L128.98-16.55Q128.78-16.45 128.73-16.3L128.73-16.3 128.28-15.1 127.93-14.45 127.28-12.6Q127.18-12.3 127.28-12.2L127.28-12.2Q127.28-12.2 127.48-12.3L127.48-12.3Q127.73-11.9 127.53-11.9L127.53-11.9Q127.78-11.9 127.83-11.9 127.88-11.9 127.78-11.95L127.78-11.95Q127.83-12 128.01-12.1 128.18-12.2 128.73-12.35L128.73-12.35Q128.78-12.15 128.88-12.15L128.88-12.15Q128.98-12.15 129.28-12.33 129.58-12.5 129.63-12.5L129.63-12.5Q129.63-12.5 129.71-12.45 129.78-12.4 129.88-12.3L129.88-12.3 130.03-12.4 131.18-12.75Q131.18-12.75 131.18-12.75L131.18-12.75 131.18-12.75Q131.18-12.75 131.23-12.6L131.23-12.6Q131.33-12.65 131.38-12.68 131.43-12.7 131.43-12.7L131.43-12.7Q131.48-12.7 131.58-12.6L131.58-12.6Q132.18-13 132.78-13.2L132.78-13.2Q132.83-13.2 132.83-13.15L132.83-13.15 132.88-13.15Q132.93-13.15 133.21-13.25 133.48-13.35 133.58-13.35L133.58-13.35Q133.58-13.25 133.43-13.1L133.43-13.1Q133.13-13.05 132.86-12.78 132.58-12.5 132.53-12.5L132.53-12.5 132.48-12.5Q132.53-12.55 132.48-12.55L132.48-12.55Q132.63-12.55 131.03-12.1L131.03-12.1Q130.88-12.05 130.43-11.83 129.98-11.6 129.93-11.6L129.93-11.6 129.13-11.35Q129.08-11.35 129.13-11.4L129.13-11.4Q129.13-11.45 129.08-11.45L129.08-11.45Q129.03-11.45 129.01-11.38 128.98-11.3 128.93-11.3L128.93-11.3Q127.78-11.3 127.53-10.9L127.53-10.9 127.38-10.9Q127.33-10.9 127.26-10.95 127.18-11 127.08-11L127.08-11Q126.93-11 126.68-10.75L126.68-10.75Q126.63-10.55 126.53-10.3 126.43-10.05 126.33-9.7L126.33-9.7Q126.33-9.7 125.98-8.7L125.98-8.7Q125.78-8.15 125.58-7.58 125.38-7 125.13-6.45L125.13-6.45Q125.08-6.25 124.98-5.9 124.88-5.55 124.78-5.1L124.78-5.1Q124.38-3.5 123.43-0.65L123.43-0.65Q123.28-0.25 123.13 0L123.13 0Q123.18 0.05 123.18 0.35L123.18 0.35Q123.13 0.45 123.08 0.6 123.03 0.75 122.93 0.85L122.93 0.85 122.93 1.05Q122.93 1.2 122.63 1.75L122.63 1.75Q122.73 2.1 122.63 2.2L122.63 2.2Q122.28 3.6 121.98 3.95L121.98 3.95 121.98 4.1Q121.98 4.25 121.93 4.48 121.88 4.7 121.78 4.95L121.78 4.95Q121.58 5.75 121.33 6.68 121.08 7.6 120.78 8.7L120.78 8.7ZM129.58-16.3L129.58-16.3Q129.58-16.3 129.58-16.3L129.58-16.3ZM123.93-7.1L123.93-7.1Q123.93-7.15 123.93-7.1L123.93-7.1Z" opacity="1" transform="matrix(1,0,0,1,0,0)" fill="#ffffff" class="wordmark-text-0" data-fill-palette-color="primary" id="text-0"></path></svg></g></svg></g></svg></g></svg></g></svg></g><defs></defs></svg><rect width="395.52" height="134.43874550389387" fill="none" stroke="none" visibility="hidden"></rect></g></svg></g></svg>